<?xml version="1.0" encoding="utf-8"?>
<!-- Generator: Adobe Illustrator 21.0.0, SVG Export Plug-In . SVG Version: 6.00 Build 0)  -->
<svg version="1.1" id="图层_1" xmlns="http://www.w3.org/2000/svg" xmlns:xlink="http://www.w3.org/1999/xlink" x="0px" y="0px"
	 viewBox="0 0 16 16" style="enable-background:new 0 0 16 16;" xml:space="preserve">
<style type="text/css">
	.st0{fill:none;}
	.st1{fill:#606266;}
</style>
<g>
	<path class="st0" d="M0,0h16v16H0V0z"/>
	<path class="st1" d="M11.9,8.8H8v4h3.9V8.8z M11.1,1.6H4.9V0H3.3v1.6H2.6C1.7,1.6,1,2.3,1,3.2l0,11.2C1,15.3,1.7,16,2.6,16h10.9
		c0.9,0,1.6-0.7,1.6-1.6V3.2c0-0.9-0.7-1.6-1.6-1.6h-0.8V0h-1.6L11.1,1.6L11.1,1.6z M13.4,14.4H2.6V5.6h10.9
		C13.4,5.6,13.4,14.4,13.4,14.4z"/>
</g>
</svg>
