<svg width="25" height="20" viewBox="0 0 25 20" fill="none" xmlns="http://www.w3.org/2000/svg">
  <path d="M17.4989 19.0164C16.5829 19.0164 15.8262 19.0063 15.0596 19.0264C14.7509 19.0365 14.6514 18.9256 14.6613 18.613C14.6713 17.4737 14.6812 16.3243 14.6613 15.1849C14.6514 14.8421 14.7908 14.7615 15.0994 14.7615C15.7765 14.7816 16.4635 14.7716 17.1405 14.7615C17.5587 14.7615 17.9171 14.6304 18.1262 14.2271C18.3452 13.8137 18.2656 13.4507 17.9868 13.1079C17.8773 12.9768 17.7877 12.8458 17.6682 12.7248C16.1249 11.1519 14.5618 9.59914 13.0285 8.01616C12.7198 7.7036 12.5406 7.69352 12.2319 8.00608C10.6986 9.58906 9.14541 11.1519 7.60214 12.7248C7.41297 12.9163 7.24371 13.1281 7.12423 13.36C6.78571 13.9851 7.26362 14.7413 8.02032 14.7615C8.71727 14.7816 9.41423 14.7816 10.1112 14.7615C10.4597 14.7514 10.619 14.832 10.609 15.2253C10.5791 16.3344 10.5891 17.4435 10.609 18.5526C10.619 18.8954 10.5194 19.0264 10.161 19.0164C8.74714 18.9962 7.34327 19.0365 5.92945 18.9962C3.32084 18.9256 1.09057 16.8082 0.692311 14.1767C0.274137 11.3535 2.31523 8.33881 5.19266 7.88509C5.47145 7.84476 5.69049 7.75401 5.7104 7.35071C5.91949 4.47715 7.37314 2.42028 9.95188 1.24061C12.6501 0.0206089 15.647 0.746561 17.6582 2.72276C18.9526 4.00326 19.6197 5.60641 19.7392 7.42129C19.7591 7.74393 19.8785 7.86492 20.1772 7.90525C22.7261 8.25815 24.7274 10.7889 24.7672 13.2592C24.807 16.0319 22.8555 18.3106 20.5158 18.8651C19.4703 19.1172 18.405 18.976 17.4989 19.0164Z" fill="#D8D8D8"/>
</svg>
