<?xml version="1.0" encoding="utf-8"?>
<!-- Generator: Adobe Illustrator 21.0.0, SVG Export Plug-In . SVG Version: 6.00 Build 0)  -->
<svg version="1.1" id="图层_1" xmlns="http://www.w3.org/2000/svg" xmlns:xlink="http://www.w3.org/1999/xlink" x="0px" y="0px"
	 viewBox="0 0 34.3 21.3" style="enable-background:new 0 0 34.3 21.3;" xml:space="preserve">
<style type="text/css">
	.st0{fill:#EFEFEF;stroke:#000000;stroke-width:0.25;stroke-miterlimit:10;}
	.st1{fill:#15223D;fill-opacity:0.6;}
</style>
<rect x="0.1" y="0.1" class="st0" width="34" height="21"/>
<path class="st1" d="M9.9,5.5V5H9.4v0.5H9.9z M24.4,5.5h0.5V5h-0.5V5.5z M24.4,15.8v0.5h0.5v-0.5H24.4z M9.9,15.8H9.4v0.5h0.5V15.8z
	 M9.9,6h14.5V5H9.9V6z M23.9,5.5v10.3h1V5.5H23.9z M24.4,15.3H9.9v1h14.5V15.3z M10.4,15.8V5.5h-1v10.3H10.4z M10.3,11.1H24v-1H10.3
	V11.1z M16.6,5.7v9.9h1V5.7H16.6z"/>
</svg>
