<svg width="8" height="10" viewBox="0 0 8 10" fill="none" xmlns="http://www.w3.org/2000/svg">
<path d="M7.78639 2.17494H5.3759V1.73422C5.3759 1.6276 5.35659 1.52203 5.31907 1.42354C5.28154 1.32504 5.22655 1.23554 5.15722 1.16015C5.08789 1.08476 5.00559 1.02496 4.915 0.984162C4.82442 0.943363 4.72733 0.922363 4.62929 0.922363H3.37071C3.1727 0.922363 2.9828 1.0079 2.84278 1.16015C2.70276 1.3124 2.6241 1.5189 2.6241 1.73422V2.17494H0.213614C0.157039 2.17494 0.102781 2.19938 0.062776 2.24288C0.0227713 2.28638 0.000296747 2.34538 0.000296747 2.4069C-0.0012428 2.4378 0.00322057 2.46871 0.0133962 2.49761C0.0235717 2.52651 0.0392313 2.55276 0.0593553 2.57464C0.0794792 2.59652 0.103616 2.61355 0.130195 2.62461C0.156773 2.63568 0.185196 2.64053 0.213614 2.63886H0.885564V8.18267C0.885564 8.64407 1.05412 9.08656 1.35416 9.41282C1.65419 9.73907 2.06113 9.92236 2.48545 9.92236H5.52522C5.94954 9.92236 6.35647 9.73907 6.65651 9.41282C6.95654 9.08656 7.1251 8.64407 7.1251 8.18267V2.63886H7.78639C7.8148 2.64053 7.84323 2.63568 7.86981 2.62461C7.89638 2.61355 7.92052 2.59652 7.94064 2.57464C7.96077 2.55276 7.97643 2.52651 7.9866 2.49761C7.99678 2.46871 8.00124 2.4378 7.9997 2.4069C7.9997 2.34538 7.97723 2.28638 7.93722 2.24288C7.89722 2.19938 7.84296 2.17494 7.78639 2.17494Z" fill="#9FA0A1"/>
</svg>
