<svg width="25" height="25" viewBox="0 0 25 25" fill="none" xmlns="http://www.w3.org/2000/svg">
<path d="M14.7852 7.38086H2.02832V14.5457H14.7852V7.38086Z" fill="#D5E9FA"/>
<path d="M18.4648 9.69531V16.0961H22.9717V11.0411L21.9213 9.69531H18.4648Z" fill="#D5E9FA"/>
<path d="M15.5775 5.88672H3.32227V13.502H15.5775V5.88672Z" stroke="#2C3C59" stroke-width="0.75" stroke-miterlimit="10" stroke-linecap="round" stroke-linejoin="round"/>
<path d="M7.86551 18.853C8.40824 18.853 8.84823 18.4269 8.84823 17.9011C8.84823 17.3754 8.40824 16.9492 7.86551 16.9492C7.32277 16.9492 6.88281 17.3754 6.88281 17.9011C6.88281 18.4269 7.32277 18.853 7.86551 18.853Z" stroke="#2C3C59" stroke-width="0.75" stroke-miterlimit="10"/>
<path d="M19.7356 18.853C20.2784 18.853 20.7183 18.4269 20.7183 17.9011C20.7183 17.3754 20.2784 16.9492 19.7356 16.9492C19.1929 16.9492 18.7529 17.3754 18.7529 17.9011C18.7529 18.4269 19.1929 18.853 19.7356 18.853Z" stroke="#2C3C59" stroke-width="0.75" stroke-miterlimit="10"/>
<path d="M3.37594 15.3721H17.4142M17.4142 15.3721V8.34766H20.1252L21.9212 10.9736V15.3721H17.4142Z" stroke="#2C3C59" stroke-width="0.75" stroke-miterlimit="10" stroke-linecap="round" stroke-linejoin="round"/>
</svg>
