<?xml version="1.0" encoding="utf-8"?>
<!-- Generator: Adobe Illustrator 21.0.0, SVG Export Plug-In . SVG Version: 6.00 Build 0)  -->
<svg version="1.1"  xmlns="http://www.w3.org/2000/svg" xmlns:xlink="http://www.w3.org/1999/xlink" x="0px" y="0px"
	 viewBox="0 0 65 27" style="enable-background:new 0 0 65 27;" xml:space="preserve">
<style type="text/css">
	.st0{fill:#F8FDFF;}
</style>
<path class="st0" d="M0,7.7c0.8,0,1.6,0,2.4,0c0,0.2,0,0.3,0,0.5c0,3.2,0,6.3,0,9.5c0,1.1,0.1,2.1,0.3,3.2c0.5,2,2.4,3.5,4.6,3.7
	c1.1,0.1,2.1,0.1,3.1-0.3c2-0.8,3.2-2.3,3.3-4.5c0.1-1.2,0.1-2.3,0.1-3.5c0-2.6,0-5.3,0-7.9c0-0.1,0-0.3,0-0.5c0.8,0,1.6,0,2.4,0
	c0,0.1,0,0.2,0,0.3c0,3.2,0,6.4,0,9.6c0,1.4-0.1,2.9-0.6,4.3c-1,2.9-3,4.4-5.9,4.9c-0.3-0.1-0.7-0.1-1.2,0c-0.2,0-0.4,0-0.6,0
	c-0.3,0-0.5-0.1-0.8-0.1c-1.5-0.1-2.9-0.5-4.1-1.4c-1.8-1.3-2.6-3.2-2.9-5.3C0,19.6,0,18.9-0.1,18.3C0,14.7,0,11.2,0,7.7z"/>
<path class="st0" d="M59.1,27c-0.8-0.2-1.6-0.3-2.3-0.5c-1.2-0.4-2.3-1.3-2.9-2.2c0.5-0.5,1-1.1,1.5-1.7c0.3,0.3,0.7,0.6,1,0.9
	c1.2,1,2.6,1.4,4.1,1c1.7-0.5,2.7-2.2,2.2-3.8c-0.2-0.6-0.6-1.1-1.1-1.5c-0.8-0.5-1.5-0.9-2.3-1.4c-0.9-0.6-1.9-1.1-2.7-1.7
	c-1.7-1.4-2.3-3.7-1.5-5.7c0.8-1.9,2.8-3.2,5-3.1c1.4,0,2.8,0.7,4,1.7c0.3,0.2,0.6,0.5,0.9,0.8c-0.6,0.5-1.1,1-1.6,1.5
	c-0.4-0.3-0.8-0.7-1.3-1c-0.9-0.6-1.8-0.9-2.9-0.7c-1.1,0.2-1.9,0.8-2.2,1.8c-0.4,1,0,1.9,0.7,2.6c0.6,0.6,1.3,1,2,1.4
	c0.8,0.5,1.6,0.9,2.4,1.4c0.6,0.4,1.1,0.8,1.6,1.2c0.7,0.7,1.1,1.6,1.3,2.6c0,0.1,0,0.2,0.1,0.2c0,0.4,0,0.8,0,1.2
	c0,0.1-0.1,0.2-0.1,0.3c-0.3,2.2-2,3.9-4.1,4.4c-0.4,0.1-0.8,0.1-1.2,0.2C59.4,27,59.2,27,59.1,27z"/>
<path class="st0" d="M48,0c0.1,0,0.2,0.1,0.3,0.1c0.9,0.3,1.5,1.3,1.3,2.2c-0.2,1-1,1.7-2,1.7s-1.8-0.7-1.9-1.7
	C45.5,1.4,46,0.4,47,0.1c0,0,0.1-0.1,0.2-0.1C47.5,0,47.7,0,48,0z"/>
<path class="st0" d="M25.9,26.4c-0.8,0-1.6,0-2.4,0c0-6.2,0-12.5,0-18.7c0.8,0,1.6,0,2.4,0c0,1.1,0,2.1,0,3.2H26
	c0.1-0.1,0.2-0.2,0.3-0.3c1.3-1.6,3-2.8,5.1-3.3c3.3-0.7,6.4,0.8,7.7,3.7c0.5,1.1,0.7,2.2,0.7,3.4c0.1,3.7,0.1,7.3,0.1,11
	c0,0.3,0,0.6,0,1c-0.8,0-1.6,0-2.4,0c0-0.1,0-0.3,0-0.5c0-3.5,0-7,0-10.4c0-1-0.1-2.1-0.4-3c-0.6-1.8-2-2.8-3.9-3
	c-3.8-0.4-6.6,2.7-6.9,5.6c-0.2,1.4-0.2,2.8-0.2,4.2c0,2.2,0,4.5,0,6.7C25.9,26.1,25.9,26.3,25.9,26.4z"/>
<path class="st0" d="M46.4,7.7c0.8,0,1.6,0,2.3,0c0,6.2,0,12.4,0,18.7c-0.8,0-1.5,0-2.3,0C46.4,20.2,46.4,14,46.4,7.7z"/>
</svg>
