<svg width="23" height="30" viewBox="0 0 23 30" xmlns="http://www.w3.org/2000/svg">
  <path d="M3.87085 12.5323C3.87085 13.2097 3.87085 13.4516 3.87085 13.8387V18.5806C3.87085 18.7258 3.96762 18.8226 4.11279 18.8226C4.25795 18.8226 4.35472 18.7258 4.35472 18.5806V13.8387C4.35472 13.5 4.35472 13.2581 4.35472 12.5806C4.35472 12.2419 4.54827 12.0484 4.83859 12.0484H6.82246C7.16117 12.0484 7.30633 12.2419 7.30633 12.5806C7.30633 14.8548 7.30633 16.3548 7.30633 18.629C7.30633 18.9677 7.11279 19.1613 6.77408 19.1613H4.83859C4.69343 19.1613 4.59666 19.2581 4.59666 19.4032C4.59666 19.5484 4.69343 19.6452 4.83859 19.6452H6.77408C7.40311 19.6452 7.7902 19.2581 7.7902 18.629C7.7902 16.3548 7.7902 14.8548 7.7902 12.5806C7.7902 12 7.40311 11.5645 6.82246 11.5645H4.83859C4.30633 11.5645 3.91924 11.9516 3.87085 12.5323Z" fill="#DADADA"/>
  <path d="M17.758 8.75806H15.7741C15.1935 8.75806 14.8064 9.14515 14.8064 9.77419C14.8064 10.4516 14.8064 18.5806 14.8064 18.5806H15.2903C15.2903 18.5806 15.2903 10.4516 15.2903 9.77419C15.2903 9.43548 15.4838 9.24193 15.7741 9.24193H17.758C18.0967 9.24193 18.2419 9.43548 18.2419 9.77419C18.2419 12.0484 18.2419 16.3548 18.2419 18.629C18.2419 18.9677 18.0483 19.1613 17.7096 19.1613H15.7741C15.629 19.1613 15.5322 19.2581 15.5322 19.4032C15.5322 19.5484 15.629 19.6452 15.7741 19.6452H17.7096C18.3387 19.6452 18.7258 19.2581 18.7258 18.629C18.7258 16.3548 18.7258 12.0484 18.7258 9.77419C18.7741 9.14515 18.387 8.75806 17.758 8.75806Z" fill="#DADADA"/>
  <path d="M12.2903 19.1129H10.3548C10.2096 19.1129 10.1129 19.2097 10.1129 19.3548C10.1129 19.5 10.2096 19.5968 10.3548 19.5968H12.2903C12.9193 19.5968 13.3064 19.2097 13.3064 18.5806V17.0806V15.1452C13.3064 14.5161 12.9193 14.129 12.2903 14.129H10.3064C9.72577 14.129 9.29028 14.5161 9.29028 15.1452V18.5323C9.29028 18.6774 9.38706 18.7742 9.53222 18.7742C9.67738 18.7742 9.77415 18.6774 9.77415 18.5323V15.1452C9.77415 14.8064 9.9677 14.6129 10.3064 14.6129H12.2903C12.629 14.6129 12.8225 14.8064 12.8225 15.1452V17.0806V18.5806C12.8225 18.9677 12.629 19.1129 12.2903 19.1129Z" fill="#DADADA"/>
  <path d="M19.6936 21.7742H13.9355C13.7904 21.7742 13.6936 21.871 13.6936 22.0161C13.6936 22.1613 13.7904 22.2581 13.9355 22.2581H19.6936C19.8388 22.2581 19.9355 22.1613 19.9355 22.0161C19.9355 21.871 19.8388 21.7742 19.6936 21.7742Z" fill="#DADADA"/>
  <path d="M12.242 22.0161C12.242 21.871 12.1452 21.7742 12 21.7742H2.95165C2.80649 21.7742 2.70972 21.871 2.70972 22.0161C2.70972 22.1613 2.80649 22.2581 2.95165 22.2581H11.9517C12.0968 22.2581 12.242 22.1613 12.242 22.0161Z" fill="#DADADA"/>
  <path d="M6.04833 26.2258H19.6935C19.8387 26.2258 19.9354 26.129 19.9354 25.9839C19.9354 25.8387 19.8387 25.7419 19.6935 25.7419H6.04833C5.90317 25.7419 5.8064 25.8387 5.8064 25.9839C5.8064 26.129 5.95156 26.2258 6.04833 26.2258Z" fill="#DADADA"/>
  <path d="M2.95165 25.7419C2.80649 25.7419 2.70972 25.8387 2.70972 25.9839C2.70972 26.129 2.80649 26.2258 2.95165 26.2258H4.06456C4.20972 26.2258 4.30649 26.129 4.30649 25.9839C4.30649 25.8387 4.20972 25.7419 4.06456 25.7419H2.95165Z" fill="#DADADA"/>
  <path d="M0.774206 7.16129C1.06453 7.16129 1.30646 6.96774 1.35485 6.72581C1.35485 6.67742 1.40324 6.58065 1.40324 6.53226C1.74195 5.41936 2.56453 4.79032 3.67743 4.64516C3.91937 4.64516 4.20969 4.59678 4.59679 4.64516H4.64517V3.43549H3.96775C3.67743 3.43549 3.38711 3.48387 3.14517 3.53226C1.64517 3.87097 0.532271 4.98387 0.193561 6.43549C0.0967868 6.82258 0.387109 7.16129 0.774206 7.16129Z" fill="#DADADA"/>
  <path d="M22.5968 7.5C22.5968 5.12903 20.9032 3.43549 18.5323 3.43549H18V4.59678H18.0968C18.1935 4.59678 18.2903 4.59678 18.3871 4.59678C18.7258 4.59678 19.1129 4.59678 19.5 4.74194C20.6613 5.12903 21.3387 6.14516 21.3387 7.45161V19.1613C21.3387 19.5968 21.3387 19.5968 21.3387 20.0323C21.3387 21.0484 21.3387 24.871 21.3387 25.9355C21.3387 26.7097 21.0968 27.3871 20.5645 27.9194C20.0323 28.5 19.2581 28.7903 18.4355 28.7903C16.5968 28.7903 14.5645 28.7903 12.0968 28.7903H4.06452C2.37097 28.7903 1.16129 27.5806 1.16129 25.8871C1.16129 22.3065 1.16129 17.6129 1.16129 13.1129C1.16129 12.7742 0.919355 12.5323 0.580645 12.5323C0.241935 12.5323 0 12.7742 0 13.1129V16.9839C0 19.1613 0 23.7581 0 26.0323C0 26.371 0.0483867 26.7581 0.145161 27.1452C0.580645 28.5484 1.93548 30 4.01613 30H4.1129C4.64516 30 5.27419 30 6 30C6.48387 30 6.96774 30 7.45161 30C7.93548 30 8.41935 30 8.90322 30H14.129C15.4355 30 17.2258 30 18.9677 30C20.8064 30 22.4516 28.4032 22.5968 26.5645C22.6452 25.6452 22.6452 24.6774 22.6452 23.7581V20.1774C22.5968 14.6613 22.5968 11.6613 22.5968 7.5Z" fill="#DADADA"/>
  <path d="M6.53224 5.37097H16.2097C16.6451 5.37097 16.8387 5.17742 16.8387 4.74194C16.8387 4.40323 16.8387 3.91935 16.8387 3.58064C16.8387 2.66129 16.7903 2.56452 15.8226 2.6129C15.0968 2.6129 14.4677 2.46774 13.9355 1.98387C13.5968 1.64516 13.3548 1.25806 13.1129 0.822581C12.8226 0.290323 12.3871 0 11.758 0C11.4193 0 11.129 0 10.8387 0C10.3064 0 9.87095 0.241935 9.62901 0.725806C9.48385 0.919355 9.38708 1.16129 9.24192 1.35484C8.90321 1.98387 8.32256 2.37097 7.64514 2.51613C7.25805 2.6129 6.82256 2.56452 6.43546 2.56452C6.04837 2.56452 5.85482 2.75806 5.85482 3.14516C5.85482 3.58065 5.85482 4.20968 5.85482 4.64516C5.80643 5.22581 5.99998 5.37097 6.53224 5.37097ZM7.01611 3.77419C7.25805 3.77419 7.54837 3.72581 7.83869 3.67742C8.85482 3.48387 9.72579 2.85484 10.258 1.93548C10.3064 1.83871 10.3548 1.74194 10.4032 1.64516C10.4516 1.54839 10.5484 1.40323 10.5968 1.30645C10.6451 1.20968 10.6935 1.20968 10.8387 1.20968C10.9355 1.20968 10.9839 1.20968 11.0806 1.20968H11.5161C11.6129 1.20968 11.7097 1.20968 11.8064 1.20968C11.9032 1.20968 12 1.20968 12.0968 1.45161L12.1451 1.5C12.3871 1.93548 12.6774 2.41935 13.1129 2.85484C13.7419 3.48387 14.6129 3.82258 15.629 3.82258V4.16129H7.01611V3.77419Z" fill="#DADADA"/>
  <path d="M0.628985 11.6613C0.949666 11.6613 1.20963 11.4013 1.20963 11.0806C1.20963 10.76 0.949666 10.5 0.628985 10.5C0.308303 10.5 0.0483398 10.76 0.0483398 11.0806C0.0483398 11.4013 0.308303 11.6613 0.628985 11.6613Z" fill="#DADADA"/>
</svg>
