<svg width="25" height="22" viewBox="0 0 25 22" fill="none" xmlns="http://www.w3.org/2000/svg">
  <path d="M12.4288 0.00345028C12.3651 0.0129517 12.3035 0.0334832 12.2468 0.0641242L0.320031 6.16619C0.229003 6.21269 0.15259 6.28342 0.0992266 6.37061C0.0458631 6.45779 0.0176232 6.55803 0.0176232 6.66025C0.0176232 6.76246 0.0458631 6.86269 0.0992266 6.94987C0.15259 7.03705 0.229003 7.10781 0.320031 7.15431L12.2468 13.2564C12.3247 13.296 12.4108 13.3166 12.4981 13.3166C12.5855 13.3166 12.6716 13.296 12.7495 13.2564L24.6763 7.15431C24.7673 7.10781 24.8437 7.03705 24.8971 6.94987C24.9504 6.86269 24.9787 6.76246 24.9787 6.66025C24.9787 6.55803 24.9504 6.45779 24.8971 6.37061C24.8437 6.28342 24.7673 6.21269 24.6763 6.16619L12.7495 0.0641242C12.6511 0.0122022 12.5394 -0.00893745 12.4288 0.00345028ZM12.4981 1.18226L23.2114 6.66025L12.4981 12.1382L1.78486 6.66025L12.4981 1.18226ZM0.554045 9.97996C0.427861 9.98013 0.305504 10.0233 0.207162 10.1024C0.108821 10.1814 0.0403708 10.2917 0.013106 10.4149C-0.0141588 10.5381 0.00139072 10.6669 0.057189 10.7801C0.112987 10.8933 0.2057 10.984 0.320031 11.0374L12.2468 17.1395C12.3247 17.1791 12.4108 17.1997 12.4981 17.1997C12.5855 17.1997 12.6716 17.1791 12.7495 17.1395L24.6763 11.0374C24.7442 11.0063 24.8052 10.9617 24.8555 10.9064C24.9059 10.8511 24.9445 10.7862 24.9691 10.7156C24.9937 10.645 25.0038 10.5701 24.9987 10.4955C24.9937 10.4209 24.9736 10.3481 24.9397 10.2815C24.9058 10.2148 24.8588 10.1557 24.8014 10.1077C24.7441 10.0597 24.6777 10.0238 24.6061 10.0021C24.5345 9.9804 24.4593 9.9734 24.385 9.98152C24.3107 9.98963 24.2387 10.0127 24.1736 10.0493L12.4981 16.0214L0.82273 10.0493C0.740488 10.0038 0.648035 9.97994 0.554045 9.97996ZM0.554045 13.8631C0.427861 13.8633 0.305504 13.9065 0.207162 13.9855C0.108821 14.0646 0.0403708 14.1748 0.013106 14.298C-0.0141588 14.4212 0.00139072 14.5501 0.057189 14.6632C0.112987 14.7764 0.2057 14.8672 0.320031 14.9206L12.2468 21.0226C12.3247 21.0622 12.4108 21.0828 12.4981 21.0828C12.5855 21.0828 12.6716 21.0622 12.7495 21.0226L24.6763 14.9206C24.7442 14.8894 24.8052 14.8449 24.8555 14.7896C24.9059 14.7343 24.9445 14.6694 24.9691 14.5988C24.9937 14.5282 25.0038 14.4533 24.9987 14.3787C24.9937 14.3041 24.9736 14.2313 24.9397 14.1646C24.9058 14.098 24.8588 14.0389 24.8014 13.9909C24.7441 13.9429 24.6777 13.9069 24.6061 13.8853C24.5345 13.8636 24.4593 13.8566 24.385 13.8647C24.3107 13.8728 24.2387 13.8959 24.1736 13.9325L12.4981 19.9045L0.82273 13.9325C0.740488 13.887 0.648035 13.8631 0.554045 13.8631Z" fill="#C96C6C"/>
</svg>
