<svg width="36" height="19" viewBox="0 0 36 19" fill="none" xmlns="http://www.w3.org/2000/svg">
  <path d="M18.7826 2.11108H36V2.95553H19.5652V11.4H36V12.2444H18.7826V2.11108Z" fill="#C96C6C"/>
  <path d="M11.739 4.64441H13.3042V5.48885H11.739V4.64441Z" fill="#C96C6C"/>
  <path d="M14.087 4.64441H14.8696V5.48885H14.087V4.64441Z" fill="#C96C6C"/>
  <path d="M0.782608 10.5556L6.26087 8.86667L7.04348 6.33333H7.82609L10.9565 2.95556H16.4348V13.0889H17.2174V2.11111C17.2174 1.38151 17.6259 0 19.1739 0V0.844444C18.0697 0.844444 18.0023 1.90169 18 2.11111V13.0889H20.3478V15.6222H21.953C22.1439 14.1917 23.274 13.0889 24.6522 13.0889C26.0303 13.0889 27.1604 14.1917 27.3514 15.6222H28.2138C28.4048 14.1917 29.5349 13.0889 30.913 13.0889C32.2912 13.0889 33.4213 14.1917 33.6123 15.6222H36V16.4667H33.6123C33.4213 17.8963 32.2912 19 30.913 19C29.5349 19 28.4048 17.8963 28.2138 16.4667H27.3514C27.1604 17.8963 26.0303 19 24.6522 19C23.274 19 22.1439 17.8963 21.953 16.4667H20.3478V17.3111H11.7391V16.4667H8.56878C8.37782 17.8963 7.24774 19 5.86957 19C4.49139 19 3.36131 17.8963 3.17035 16.4667H0V13.9333H0.782608V10.5556ZM30.913 18.1556C31.9923 18.1556 32.8696 17.2089 32.8696 16.0444C32.8696 14.88 31.9923 13.9333 30.913 13.9333C29.8338 13.9333 28.9565 14.88 28.9565 16.0444C28.9565 17.2089 29.8338 18.1556 30.913 18.1556ZM24.6522 18.1556C25.7314 18.1556 26.6087 17.2089 26.6087 16.0444C26.6087 14.88 25.7314 13.9333 24.6522 13.9333C23.573 13.9333 22.6957 14.88 22.6957 16.0444C22.6957 17.2089 23.573 18.1556 24.6522 18.1556ZM7.60774 7.17778L7.08652 8.86667H10.9565V7.17778H8.15009H7.60774ZM14.087 16.4667H19.5652V13.9333H14.087V16.4667ZM12.5217 16.4667H13.3043V13.9333H12.5217V16.4667ZM5.86957 18.1556C6.94878 18.1556 7.82609 17.2089 7.82609 16.0444C7.82609 14.88 6.94878 13.9333 5.86957 13.9333C4.79035 13.9333 3.91304 14.88 3.91304 16.0444C3.91304 17.2089 4.79035 18.1556 5.86957 18.1556ZM1.56522 15.6222H3.17035C3.36131 14.1917 4.49139 13.0889 5.86957 13.0889C7.24774 13.0889 8.37782 14.1917 8.56878 15.6222H11.7391V13.0889H15.6522V3.8H11.2805L8.9327 6.33333H11.7391V9.71111H6.37043L1.56522 11.1923V15.6222Z" fill="#C96C6C"/>
  <path d="M32.087 3.80005H32.8696V4.64449H32.087V3.80005Z" fill="#C96C6C"/>
  <path d="M20.3477 3.80005H31.3042V4.64449H20.3477V3.80005Z" fill="#C96C6C"/>
  <path d="M30.913 17.3112C30.2647 17.3112 29.7391 16.7441 29.7391 16.0445C29.7391 15.3449 30.2647 14.7778 30.913 14.7778C31.5613 14.7778 32.0869 15.3449 32.0869 16.0445C32.0869 16.7441 31.5613 17.3112 30.913 17.3112Z" fill="#C96C6C"/>
  <path d="M24.652 17.3112C24.0037 17.3112 23.4781 16.7441 23.4781 16.0445C23.4781 15.3449 24.0037 14.7778 24.652 14.7778C25.3003 14.7778 25.8259 15.3449 25.8259 16.0445C25.8259 16.7441 25.3003 17.3112 24.652 17.3112Z" fill="#C96C6C"/>
  <path d="M5.86954 17.3112C5.22121 17.3112 4.69563 16.7441 4.69563 16.0445C4.69563 15.3449 5.22121 14.7778 5.86954 14.7778C6.51788 14.7778 7.04346 15.3449 7.04346 16.0445C7.04346 16.7441 6.51788 17.3112 5.86954 17.3112Z" fill="#C96C6C"/>
</svg>
