<svg width="31" height="20" viewBox="0 0 31 20" fill="none" xmlns="http://www.w3.org/2000/svg">
  <path d="M30.6887 6.2969L15.7043 0C15.7043 0 15.6703 0 15.6362 0H15.6022H15.5681C15.5341 0 15.5341 0 15.5 0H15.4659C15.4319 0 15.4319 0 15.3978 0H15.3638C15.3297 0 15.3297 1.23974e-07 15.2957 0.0326266L0.311305 6.32953C0.0388618 6.42741 -0.0633044 6.72104 0.0388618 6.98206C0.106972 7.17781 0.311305 7.27569 0.515637 7.27569C0.583748 7.27569 0.651858 7.27569 0.719969 7.24307L2.59301 6.46003V19.5106C2.59301 19.7716 2.8314 20 3.10385 20H6.74777H10.9025H14.3421H15.5H20.0975H24.2522H27.8962C28.1686 20 28.407 19.7716 28.407 19.5106V6.46003L30.28 7.24307C30.3481 7.27569 30.4163 7.27569 30.4844 7.27569C30.6887 7.27569 30.859 7.17781 30.9611 6.98206C31.0633 6.68842 30.9611 6.39478 30.6887 6.2969ZM11.4134 18.956V15.5628H12.6734V16.1827C12.6734 16.4437 12.9118 16.6721 13.1842 16.6721C13.4567 16.6721 13.6951 16.4437 13.6951 16.1827V15.5628H14.9551V18.9886H14.3081H11.4134V18.956ZM15.5 12.2675C15.7724 12.2675 16.0108 12.0392 16.0108 11.7781V11.1582H17.2709V14.584H15.5H13.7291V11.1582H14.9892V11.7781C14.9892 12.0392 15.2276 12.2675 15.5 12.2675ZM16.0108 18.956V15.5628H17.2709V16.1827C17.2709 16.4437 17.5093 16.6721 17.7817 16.6721C18.0542 16.6721 18.2925 16.4437 18.2925 16.1827V15.5628H19.5866V18.9886H16.0108V18.956ZM20.6083 18.956V15.0408C20.6083 14.7798 20.3699 14.5514 20.0975 14.5514H18.3266V10.6362C18.3266 10.3752 18.0882 10.1468 17.8158 10.1468H13.2183C12.9458 10.1468 12.7075 10.3752 12.7075 10.6362V14.5514H10.9366C10.6641 14.5514 10.4257 14.7798 10.4257 15.0408V18.956H7.29266V8.84176H23.7755V18.956H20.6083ZM27.3853 18.956H24.7631V8.38499C24.7631 8.12398 24.5247 7.8956 24.2522 7.8956H6.74777C6.47533 7.8956 6.23694 8.12398 6.23694 8.38499V18.9886H3.61468V5.97064L15.5 0.978793L27.3853 5.97064V18.956Z" fill="#979797"/>
  <path d="M13.082 4.63295C13.082 4.89396 13.3204 5.12235 13.5929 5.12235H17.1346C17.4071 5.12235 17.6455 4.89396 17.6455 4.63295C17.6455 4.37194 17.4071 4.14355 17.1346 4.14355H13.5929C13.3204 4.14355 13.082 4.37194 13.082 4.63295Z" fill="#979797"/>
</svg>
