<svg width="23" height="23" viewBox="0 0 23 23"  xmlns="http://www.w3.org/2000/svg">
  <path d="M21.8722 5.57312C21.4239 5.40502 20.9196 5.46106 20.5834 5.79726L18.9023 7.4783C18.7342 7.64641 18.6222 7.64641 18.6222 7.64641L15.8204 4.84467V4.78864L17.7256 2.88346C18.0618 2.54725 18.1739 2.04294 17.9497 1.59466C17.7816 1.14638 17.3334 0.866211 16.829 0.866211C15.3721 0.922246 14.0273 1.48259 12.9627 2.49122C11.4497 4.00415 10.9454 6.24554 11.6178 8.26279V8.31882L1.36348 18.5732C0.57899 19.3016 0.298816 20.2542 0.522955 21.1508C0.747094 21.9913 1.41951 22.7197 2.31607 22.9439C2.5402 22.9999 2.70831 22.9999 2.93245 22.9999C3.6609 22.9999 4.33331 22.6637 4.89366 22.1034L15.092 11.905H15.148C17.1653 12.5775 19.2946 12.0731 20.8075 10.6723C21.9282 9.60762 22.5446 8.20676 22.5446 6.69382C22.6006 6.18951 22.3204 5.74123 21.8722 5.57312ZM20.023 9.83176C18.8463 10.9525 17.1092 11.3447 15.4842 10.8404C15.0359 10.7283 14.5877 10.7844 14.2515 11.1206L4.10917 21.2628C3.6609 21.7111 3.10055 21.9353 2.59624 21.7672C2.14796 21.6551 1.75572 21.2628 1.64365 20.8146C1.53158 20.3102 1.69968 19.8059 2.204 19.3577L12.3463 9.21538C12.6825 8.87917 12.7946 8.43089 12.6264 7.98262C12.0661 6.35761 12.5144 4.5645 13.7471 3.33174C14.5877 2.49122 15.6523 2.04294 16.829 1.9869C16.829 1.9869 16.8851 1.9869 16.8851 2.04294C16.8851 2.09897 16.8851 2.09897 16.8851 2.09897L14.9799 4.00415C14.5316 4.45243 14.5316 5.23692 14.9799 5.68519L17.7816 8.48693C18.0058 8.71107 18.342 8.82314 18.7342 8.82314C19.0704 8.7671 19.3506 8.599 19.6868 8.31882L21.4239 6.58175C21.4799 6.58175 21.4799 6.63778 21.4799 6.63778C21.4239 7.87055 20.9196 8.99124 20.023 9.83176ZM3.60486 20.4223C3.60486 20.7585 3.38072 20.9827 3.04452 20.9827C2.70831 20.9827 2.48417 20.7585 2.48417 20.4223C2.48417 20.0861 2.70831 19.862 3.04452 19.862C3.38072 19.862 3.60486 20.0861 3.60486 20.4223Z" fill="#DADADA"/>
</svg>
