<svg width="26" height="25" viewBox="0 0 26 25" fill="none" xmlns="http://www.w3.org/2000/svg">
<path d="M19.1754 20.0716L10.3826 20.0716C10.04 20.0716 9.75457 19.9574 9.52618 19.729C9.32635 19.5292 9.18361 19.2152 9.18361 18.8726C9.18361 18.2445 9.72602 17.7021 10.3541 17.7021L16.292 17.7021L6.18608 7.59616C5.72931 7.1394 5.72931 6.39715 6.18608 5.94038C6.64285 5.48362 7.38509 5.48362 7.84186 5.94038L17.9764 16.0749L18.0049 10.1084C18.0049 9.48032 18.5473 8.93791 19.1754 8.93791C19.8034 8.93791 20.3458 9.48032 20.3458 10.1084L20.3458 18.9011C20.3744 19.5577 19.8605 20.0716 19.1754 20.0716Z" fill="#00A6E8"/>
</svg>
