<svg width="26" height="24" viewBox="0 0 26 24" fill="none" xmlns="http://www.w3.org/2000/svg">
<path d="M21.3741 7.04579L19.6533 15.6685C19.5863 16.0045 19.4184 16.2621 19.1498 16.4413C18.9147 16.5982 18.5788 16.6767 18.2428 16.6097C17.6269 16.4868 17.2012 15.8487 17.3241 15.2328L18.4862 9.40965L6.59785 17.3424C6.06052 17.7009 5.33263 17.5556 4.97409 17.0183C4.61555 16.481 4.76081 15.7531 5.29814 15.3946L17.2201 7.43943L11.3745 6.24375C10.7586 6.12083 10.3328 5.48276 10.4557 4.86685C10.5787 4.25094 11.2167 3.82517 11.8326 3.94809L20.4554 5.66889C21.1049 5.7694 21.5082 6.37389 21.3741 7.04579Z" fill="#00A6E8"/>
</svg>
