<svg width="21" height="22" viewBox="0 0 21 22" fill="none" xmlns="http://www.w3.org/2000/svg">
<path d="M10.0266 0.000668513C10.0875 0.00366851 10.1431 0.0162161 10.1903 0.0304304L19.7141 3.83995C19.8902 3.91119 20.0137 4.0964 20.0117 4.28637V17.1435C20.0107 17.331 19.8879 17.5122 19.7141 17.5825L10.1903 21.392C10.0772 21.4378 9.94627 21.4378 9.83315 21.392L0.309359 17.5825C0.135547 17.5122 0.0127191 17.331 0.0117405 17.1435V4.28637C0.00983574 4.0964 0.13324 3.91119 0.309359 3.83995L9.83315 0.0304304C9.89942 0.00423755 9.96568 -0.00232434 10.0266 0.000668513ZM10.0117 0.99025L1.77513 4.28637L5.24982 5.6703L13.4864 2.38162L10.0117 0.99025ZM14.7736 2.89501L6.53702 6.19113L10.0117 7.57506L18.2483 4.28637L14.7736 2.89501ZM19.0593 4.98578L10.4879 8.41583V20.2387L19.0593 16.8161V4.98578ZM0.96412 4.98578V16.8161L9.53553 20.2387V8.41583L5.72601 6.89053V10.0007C5.7269 10.0638 5.71525 10.1264 5.69172 10.185C5.66819 10.2435 5.63325 10.2968 5.58894 10.3417C5.54464 10.3867 5.49184 10.4224 5.43363 10.4467C5.37541 10.4711 5.31293 10.4836 5.24982 10.4836C5.18672 10.4836 5.12424 10.4711 5.06602 10.4467C5.00781 10.4224 4.95501 10.3867 4.9107 10.3417C4.8664 10.2968 4.83146 10.2435 4.80793 10.185C4.7844 10.1264 4.77274 10.0638 4.77363 10.0007V6.51107L0.96412 4.98578Z" fill="#00A6E8"/>
</svg>
