<svg width="20" height="19" viewBox="0 0 20 19" fill="none" xmlns="http://www.w3.org/2000/svg">
<path d="M17.8407 16.1796C17.8407 17.0606 17.1247 17.8036 16.2437 17.8036H3.46473C2.58373 17.8036 1.86773 17.0606 1.86773 16.1796V3.40062C1.86773 2.51962 2.58373 1.82962 3.46473 1.82962H10.9187V0.765625H3.46473C1.99673 0.765625 0.802734 1.93362 0.802734 3.40162V16.1796C0.802734 17.6476 1.99673 18.8676 3.46473 18.8676H16.2427C17.7107 18.8676 18.9047 17.6466 18.9047 16.1796V8.75163H17.8397V16.1796H17.8407Z" fill="#C96C6C"/>
<path d="M19.0408 0.60375C18.2368 -0.20125 16.8338 -0.20125 16.0288 0.60375L8.88576 7.74675C8.81776 7.81475 8.76876 7.90075 8.74576 7.99375L7.99376 11.0048C7.94876 11.1858 8.00176 11.3777 8.13376 11.5107C8.23476 11.6117 8.37076 11.6667 8.50976 11.6667C8.55276 11.6667 8.59576 11.6617 8.63876 11.6508L11.6508 10.8977C11.7448 10.8748 11.8298 10.8258 11.8978 10.7578L19.0408 3.61475C19.4428 3.21275 19.6648 2.67775 19.6648 2.10875C19.6648 1.53975 19.4438 1.00575 19.0408 0.60375ZM11.2498 9.90075L9.24176 10.4028L9.74376 8.39475L15.6528 2.48575L17.1588 3.99175L11.2498 9.90075ZM18.2878 2.86175L17.9118 3.23775L16.4058 1.73175L16.7818 1.35575C17.1838 0.95375 17.8858 0.95375 18.2878 1.35575C18.4888 1.55675 18.5998 1.82375 18.5998 2.10875C18.5998 2.39375 18.4888 2.66075 18.2878 2.86175Z" fill="#C96C6C"/>
</svg>
