<svg width="135" height="23" viewBox="0 0 135 23" fill="none" xmlns="http://www.w3.org/2000/svg">
<rect x="36.7568" y="4.62598" width="98.188" height="16.7239" rx="4" fill="#3498DB"/>
<path fill-rule="evenodd" clip-rule="evenodd" d="M19.5732 3.01554H18.3811V0.830078H15.9969V3.01554H6.46036V0.830078H4.07622V3.01554H2.88414C1.56094 3.01554 0.511921 3.999 0.511921 5.20101L0.5 20.4993C0.5 21.7013 1.56094 22.6847 2.88414 22.6847H19.5732C20.8844 22.6847 21.9573 21.7013 21.9573 20.4993V5.20101C21.9573 3.999 20.8844 3.01554 19.5732 3.01554ZM19.5733 20.4991H2.88428V8.479H19.5733V20.4991Z" fill="#3498DB"/>
<path d="M50.7256 16.182C50.2936 16.39 49.8176 16.55 49.2976 16.662C48.7856 16.782 48.1936 16.842 47.5216 16.842C46.8336 16.842 46.2056 16.734 45.6376 16.518C45.0696 16.294 44.5816 15.986 44.1736 15.594C43.7656 15.194 43.4456 14.722 43.2136 14.178C42.9896 13.626 42.8776 13.018 42.8776 12.354C42.8776 11.674 42.9936 11.062 43.2256 10.518C43.4656 9.96598 43.7896 9.49798 44.1976 9.11398C44.6136 8.72998 45.1016 8.43398 45.6616 8.22598C46.2216 8.01798 46.8296 7.91398 47.4856 7.91398C48.1656 7.91398 48.7856 8.01398 49.3456 8.21398C49.9136 8.40598 50.3696 8.66198 50.7136 8.98198L49.6696 10.11C49.4536 9.86998 49.1496 9.66598 48.7576 9.49798C48.3736 9.32998 47.9536 9.24598 47.4976 9.24598C47.0496 9.24598 46.6416 9.32598 46.2736 9.48598C45.9136 9.64598 45.6056 9.86598 45.3496 10.146C45.0936 10.426 44.8936 10.754 44.7496 11.13C44.6136 11.506 44.5456 11.914 44.5456 12.354C44.5456 12.81 44.6136 13.23 44.7496 13.614C44.8936 13.99 45.0936 14.318 45.3496 14.598C45.6136 14.878 45.9296 15.098 46.2976 15.258C46.6736 15.41 47.0976 15.486 47.5696 15.486C48.2176 15.486 48.7816 15.386 49.2616 15.186V13.026H47.4736V11.778H50.7256V16.182ZM59.7349 13.506C59.7349 14.018 59.6469 14.482 59.4709 14.898C59.2949 15.306 59.0549 15.654 58.7509 15.942C58.4469 16.23 58.0869 16.454 57.6709 16.614C57.2549 16.766 56.8029 16.842 56.3149 16.842C55.8269 16.842 55.3749 16.766 54.9589 16.614C54.5429 16.454 54.1789 16.23 53.8669 15.942C53.5629 15.654 53.3229 15.306 53.1469 14.898C52.9789 14.482 52.8949 14.018 52.8949 13.506V8.12998H54.4069V13.446C54.4069 13.694 54.4389 13.942 54.5029 14.19C54.5669 14.43 54.6709 14.646 54.8149 14.838C54.9669 15.03 55.1629 15.186 55.4029 15.306C55.6509 15.426 55.9549 15.486 56.3149 15.486C56.6749 15.486 56.9749 15.426 57.2149 15.306C57.4629 15.186 57.6589 15.03 57.8029 14.838C57.9549 14.646 58.0629 14.43 58.1269 14.19C58.1909 13.942 58.2229 13.694 58.2229 13.446V8.12998H59.7349V13.506ZM64.4332 8.12998H65.7412L69.4012 16.626H67.6732L66.8812 14.682H63.1972L62.4292 16.626H60.7372L64.4332 8.12998ZM66.3532 13.386L65.0452 9.92998L63.7132 13.386H66.3532ZM70.6419 8.12998H73.5939C73.9939 8.12998 74.3819 8.17398 74.7579 8.26198C75.1339 8.34198 75.4659 8.47798 75.7539 8.66998C76.0499 8.86198 76.2859 9.11398 76.4619 9.42598C76.6379 9.73798 76.7259 10.118 76.7259 10.566C76.7259 11.182 76.5499 11.686 76.1979 12.078C75.8539 12.462 75.3819 12.722 74.7819 12.858L77.0499 16.626H75.2259L73.2579 13.026H72.1539V16.626H70.6419V8.12998ZM73.3899 11.79C73.6059 11.79 73.8219 11.774 74.0379 11.742C74.2539 11.71 74.4459 11.65 74.6139 11.562C74.7899 11.474 74.9339 11.35 75.0459 11.19C75.1579 11.022 75.2139 10.81 75.2139 10.554C75.2139 10.322 75.1619 10.134 75.0579 9.98998C74.9539 9.83798 74.8219 9.71798 74.6619 9.62998C74.5019 9.54198 74.3179 9.48198 74.1099 9.44998C73.9099 9.41798 73.7139 9.40198 73.5219 9.40198H72.1539V11.79H73.3899ZM81.2527 8.12998H82.5607L86.2207 16.626H84.4927L83.7007 14.682H80.0167L79.2487 16.626H77.5567L81.2527 8.12998ZM83.1727 13.386L81.8647 9.92998L80.5327 13.386H83.1727ZM87.4614 8.12998H89.4654L93.4134 14.49H93.4374V8.12998H94.9494V16.626H93.0294L88.9974 10.062H88.9734V16.626H87.4614V8.12998ZM98.9407 9.44998H96.3367V8.12998H103.057V9.44998H100.453V16.626H98.9407V9.44998ZM104.445 8.12998H110.073V9.44998H105.957V11.61H109.857V12.882H105.957V15.282H110.289V16.626H104.445V8.12998ZM112.169 8.12998H117.797V9.44998H113.681V11.61H117.581V12.882H113.681V15.282H118.013V16.626H112.169V8.12998ZM119.893 8.12998H122.905C123.457 8.12998 124.013 8.20198 124.573 8.34598C125.133 8.48998 125.637 8.72998 126.085 9.06598C126.533 9.39398 126.897 9.82998 127.177 10.374C127.457 10.91 127.597 11.578 127.597 12.378C127.597 13.122 127.457 13.762 127.177 14.298C126.897 14.834 126.533 15.274 126.085 15.618C125.637 15.962 125.133 16.218 124.573 16.386C124.013 16.546 123.457 16.626 122.905 16.626H119.893V8.12998ZM122.665 15.306C123.057 15.306 123.449 15.262 123.841 15.174C124.233 15.078 124.585 14.922 124.897 14.706C125.217 14.482 125.477 14.182 125.677 13.806C125.877 13.43 125.977 12.954 125.977 12.378C125.977 11.77 125.877 11.274 125.677 10.89C125.477 10.506 125.217 10.206 124.897 9.98998C124.585 9.77398 124.233 9.62598 123.841 9.54598C123.449 9.46598 123.057 9.42598 122.665 9.42598H121.405V15.306H122.665Z" fill="white"/>
</svg>
