<svg width="55" height="12" viewBox="0 0 55 12" fill="none" xmlns="http://www.w3.org/2000/svg">
<path d="M1.54197 7.108C1.54197 7.702 1.60431 8.27767 1.72897 8.835C1.86097 9.385 2.04797 9.88367 2.28997 10.331L1.50897 10.716C1.23031 10.2393 1.01031 9.68933 0.848972 9.066C0.694972 8.44267 0.617972 7.79367 0.617972 7.119C0.617972 5.98967 0.845305 4.897 1.29997 3.841C1.76197 2.785 2.39997 1.817 3.21397 0.937L3.86297 1.41C3.50364 1.81333 3.18097 2.246 2.89497 2.708C2.60897 3.16267 2.36331 3.63567 2.15797 4.127C1.95997 4.611 1.80597 5.106 1.69597 5.612C1.59331 6.118 1.54197 6.61667 1.54197 7.108ZM8.39917 9.198C7.85651 9.198 7.36151 9.121 6.91417 8.967C6.47417 8.80567 6.09651 8.57833 5.78117 8.285C5.46584 7.99167 5.22017 7.63967 5.04417 7.229C4.87551 6.811 4.79117 6.34533 4.79117 5.832C4.79117 5.16467 4.90484 4.54133 5.13217 3.962C5.36684 3.37533 5.68584 2.86567 6.08917 2.433C6.49984 1.993 6.98017 1.64833 7.53017 1.399C8.08017 1.14233 8.67784 1.014 9.32318 1.014C9.85117 1.014 10.3352 1.09467 10.7752 1.256C11.2152 1.41 11.5928 1.63367 11.9082 1.927C12.2235 2.22033 12.4655 2.57233 12.6342 2.983C12.8102 3.39367 12.8982 3.85567 12.8982 4.369C12.8982 5.03633 12.7845 5.66333 12.5572 6.25C12.3372 6.83667 12.0255 7.35 11.6222 7.79C11.2188 8.22267 10.7422 8.56733 10.1922 8.824C9.64217 9.07333 9.04451 9.198 8.39917 9.198ZM11.7762 4.468C11.7762 4.116 11.7212 3.78967 11.6112 3.489C11.5012 3.181 11.3398 2.91333 11.1272 2.686C10.9145 2.45133 10.6505 2.268 10.3352 2.136C10.0272 2.004 9.67151 1.938 9.26817 1.938C8.76217 1.938 8.30018 2.048 7.88217 2.268C7.47151 2.48067 7.11951 2.76667 6.82617 3.126C6.53284 3.478 6.30551 3.88133 6.14417 4.336C5.99017 4.79067 5.91317 5.25633 5.91317 5.733C5.91317 6.07767 5.96817 6.404 6.07817 6.712C6.18817 7.02 6.34584 7.29133 6.55117 7.526C6.76384 7.75333 7.02417 7.933 7.33217 8.065C7.64751 8.197 8.01051 8.263 8.42117 8.263C8.93451 8.263 9.39651 8.15667 9.80717 7.944C10.2252 7.73133 10.5772 7.449 10.8632 7.097C11.1565 6.73767 11.3802 6.33067 11.5342 5.876C11.6955 5.42133 11.7762 4.952 11.7762 4.468ZM15.7913 4.622C15.9819 4.34333 16.2459 4.11233 16.5833 3.929C16.9206 3.74567 17.2909 3.654 17.6943 3.654C18.0389 3.654 18.3506 3.709 18.6293 3.819C18.9079 3.929 19.1463 4.083 19.3443 4.281C19.5423 4.479 19.6963 4.71733 19.8063 4.996C19.9163 5.26733 19.9713 5.57167 19.9713 5.909C19.9713 6.35633 19.8943 6.778 19.7403 7.174C19.5936 7.56267 19.3883 7.90367 19.1243 8.197C18.8603 8.49033 18.5449 8.72133 18.1783 8.89C17.8189 9.05867 17.4266 9.143 17.0013 9.143C16.5759 9.143 16.2056 9.055 15.8903 8.879C15.5823 8.703 15.3476 8.461 15.1863 8.153H15.1643L14.5593 11.64H13.5363L14.9223 3.786H15.9123L15.7693 4.622H15.7913ZM18.9153 6.008C18.9153 5.58267 18.7906 5.227 18.5413 4.941C18.2919 4.64767 17.9326 4.501 17.4633 4.501C17.1773 4.501 16.9059 4.56333 16.6493 4.688C16.3999 4.80533 16.1799 4.97033 15.9893 5.183C15.8059 5.38833 15.6593 5.63033 15.5493 5.909C15.4466 6.18767 15.3953 6.481 15.3953 6.789C15.3953 7.009 15.4283 7.21433 15.4943 7.405C15.5676 7.58833 15.6703 7.746 15.8023 7.878C15.9343 8.01 16.0919 8.11633 16.2753 8.197C16.4659 8.27033 16.6749 8.307 16.9023 8.307C17.2029 8.307 17.4779 8.24833 17.7273 8.131C17.9766 8.00633 18.1893 7.84133 18.3653 7.636C18.5413 7.43067 18.6769 7.18867 18.7723 6.91C18.8676 6.63133 18.9153 6.33067 18.9153 6.008ZM24.4459 4.622H23.1589L22.6639 7.361C22.6419 7.48567 22.6309 7.59567 22.6309 7.691C22.6309 7.911 22.6859 8.06133 22.7959 8.142C22.9133 8.21533 23.0673 8.252 23.2579 8.252C23.3606 8.252 23.4633 8.241 23.5659 8.219C23.6686 8.197 23.7529 8.16767 23.8189 8.131L23.7419 8.945C23.6393 8.989 23.5109 9.022 23.3569 9.044C23.2103 9.07333 23.0636 9.088 22.9169 9.088C22.5136 9.088 22.1909 9 21.9489 8.824C21.7143 8.64067 21.5969 8.35467 21.5969 7.966C21.5969 7.88533 21.6006 7.801 21.6079 7.713C21.6153 7.625 21.6263 7.537 21.6409 7.449L22.1469 4.622H21.1569L21.3109 3.786H22.2899L22.5429 2.29H23.5549L23.2909 3.786H24.5999L24.4459 4.622ZM26.2188 9H25.2068L26.1198 3.786H27.1428L26.2188 9ZM27.5828 1.883C27.5828 2.06633 27.5205 2.224 27.3958 2.356C27.2711 2.488 27.1171 2.554 26.9338 2.554C26.7578 2.554 26.6038 2.499 26.4718 2.389C26.3471 2.279 26.2848 2.125 26.2848 1.927C26.2848 1.729 26.3508 1.56767 26.4828 1.443C26.6221 1.311 26.7798 1.245 26.9558 1.245C27.1318 1.245 27.2785 1.30367 27.3958 1.421C27.5205 1.53833 27.5828 1.69233 27.5828 1.883ZM30.88 9.143C30.5206 9.143 30.1906 9.088 29.89 8.978C29.5893 8.868 29.329 8.714 29.109 8.516C28.889 8.31067 28.7166 8.06867 28.592 7.79C28.4673 7.51133 28.405 7.20333 28.405 6.866C28.405 6.43333 28.4783 6.02267 28.625 5.634C28.779 5.24533 28.9916 4.90433 29.263 4.611C29.5416 4.31033 29.8716 4.07567 30.253 3.907C30.6416 3.731 31.0706 3.643 31.54 3.643C31.8993 3.643 32.2293 3.698 32.53 3.808C32.8306 3.918 33.091 4.072 33.311 4.27C33.531 4.468 33.6996 4.70633 33.817 4.985C33.9416 5.25633 34.004 5.56067 34.004 5.898C34.004 6.338 33.927 6.756 33.773 7.152C33.6263 7.54067 33.4136 7.88533 33.135 8.186C32.8636 8.47933 32.5373 8.714 32.156 8.89C31.7746 9.05867 31.3493 9.143 30.88 9.143ZM32.97 5.997C32.97 5.78433 32.9333 5.58633 32.86 5.403C32.794 5.21967 32.695 5.062 32.563 4.93C32.4383 4.79067 32.2806 4.68433 32.09 4.611C31.9066 4.53033 31.7013 4.49 31.474 4.49C31.1733 4.49 30.8983 4.55233 30.649 4.677C30.3996 4.80167 30.1833 4.97033 30 5.183C29.824 5.38833 29.6846 5.63033 29.582 5.909C29.4866 6.18033 29.439 6.47 29.439 6.778C29.439 7.218 29.571 7.581 29.835 7.867C30.099 8.14567 30.4656 8.285 30.935 8.285C31.2356 8.285 31.5106 8.22633 31.76 8.109C32.0093 7.98433 32.222 7.81933 32.398 7.614C32.5813 7.40133 32.7206 7.15567 32.816 6.877C32.9186 6.59833 32.97 6.305 32.97 5.997ZM37.1671 3.786C37.1525 3.88867 37.1341 4.028 37.1121 4.204C37.0975 4.37267 37.0791 4.51567 37.0571 4.633H37.0791C37.2698 4.33233 37.5118 4.094 37.8051 3.918C38.1058 3.73467 38.4431 3.643 38.8171 3.643C39.3891 3.643 39.8218 3.797 40.1151 4.105C40.4158 4.40567 40.5661 4.787 40.5661 5.249C40.5661 5.43233 40.5515 5.60833 40.5221 5.777L39.9501 9H38.9271L39.4331 6.118C39.4771 5.92 39.4991 5.72567 39.4991 5.535C39.4991 5.23433 39.4258 4.98867 39.2791 4.798C39.1325 4.60733 38.8685 4.512 38.4871 4.512C38.0765 4.512 37.7208 4.66967 37.4201 4.985C37.1195 5.293 36.9215 5.70733 36.8261 6.228L36.3421 9H35.3191L36.0341 4.919C36.0635 4.77967 36.0928 4.6 36.1221 4.38C36.1588 4.16 36.1845 3.962 36.1991 3.786H37.1671ZM45.8132 5.744C45.8279 5.64133 45.8389 5.56067 45.8462 5.502C45.8536 5.44333 45.8572 5.38833 45.8572 5.337C45.8572 5.029 45.7619 4.809 45.5712 4.677C45.3806 4.53767 45.1092 4.468 44.7572 4.468C44.4786 4.468 44.1999 4.523 43.9212 4.633C43.6426 4.743 43.4006 4.87867 43.1952 5.04L42.7772 4.358C43.0559 4.138 43.3822 3.96567 43.7562 3.841C44.1302 3.709 44.5116 3.643 44.9002 3.643C45.1496 3.643 45.3879 3.67233 45.6152 3.731C45.8499 3.78233 46.0552 3.87033 46.2312 3.995C46.4146 4.11233 46.5612 4.27 46.6712 4.468C46.7812 4.666 46.8362 4.90433 46.8362 5.183C46.8362 5.249 46.8326 5.337 46.8252 5.447C46.8179 5.54967 46.8069 5.63767 46.7922 5.711L46.4072 7.823C46.3706 8.02833 46.3412 8.241 46.3192 8.461C46.2972 8.67367 46.2862 8.85333 46.2862 9H45.3512C45.3512 8.89 45.3549 8.77267 45.3622 8.648C45.3769 8.52333 45.3952 8.39867 45.4172 8.274H45.3952C45.1459 8.56733 44.8746 8.78 44.5812 8.912C44.2879 9.044 43.9432 9.11 43.5472 9.11C43.3712 9.11 43.1879 9.088 42.9972 9.044C42.8066 9 42.6306 8.92667 42.4692 8.824C42.3152 8.714 42.1869 8.571 42.0842 8.395C41.9816 8.219 41.9302 7.999 41.9302 7.735C41.9302 7.30967 42.0476 6.96867 42.2822 6.712C42.5169 6.448 42.8176 6.24633 43.1842 6.107C43.5582 5.96033 43.9762 5.865 44.4382 5.821C44.9002 5.76967 45.3586 5.744 45.8132 5.744ZM45.5382 6.492C45.2522 6.492 44.9552 6.50667 44.6472 6.536C44.3392 6.558 44.0569 6.60933 43.8002 6.69C43.5509 6.76333 43.3456 6.87333 43.1842 7.02C43.0229 7.16667 42.9422 7.35733 42.9422 7.592C42.9422 7.73867 42.9679 7.85967 43.0192 7.955C43.0779 8.043 43.1512 8.11633 43.2392 8.175C43.3346 8.23367 43.4372 8.274 43.5472 8.296C43.6646 8.318 43.7819 8.329 43.8992 8.329C44.1266 8.329 44.3392 8.29233 44.5372 8.219C44.7352 8.13833 44.9076 8.032 45.0542 7.9C45.2009 7.768 45.3219 7.614 45.4172 7.438C45.5199 7.262 45.5896 7.075 45.6262 6.877L45.7032 6.492H45.5382ZM49.3339 9H48.3109L49.7739 0.684H50.8079L49.3339 9ZM53.4888 4.545C53.4888 3.951 53.4228 3.379 53.2908 2.829C53.1588 2.27167 52.9755 1.76933 52.7408 1.322L53.5218 0.937C53.8005 1.41367 54.0168 1.96367 54.1708 2.587C54.3321 3.21033 54.4128 3.85933 54.4128 4.534C54.4128 5.66333 54.1818 6.756 53.7198 7.812C53.2651 8.868 52.6308 9.836 51.8168 10.716L51.1678 10.243C51.5271 9.83967 51.8498 9.41067 52.1358 8.956C52.4218 8.494 52.6638 8.021 52.8618 7.537C53.0671 7.04567 53.2211 6.547 53.3238 6.041C53.4338 5.535 53.4888 5.03633 53.4888 4.545Z" fill="#15223D" fill-opacity="0.7"/>
</svg>
