<svg width="20" height="20" viewBox="0 0 20 20" fill="none" xmlns="http://www.w3.org/2000/svg">
<rect width="18" height="18" rx="9" fill="#E5E5E5"/>
<path fill-rule="evenodd" clip-rule="evenodd" d="M10.2139 12.1859H8.89788V11.5139C8.89788 11.2713 8.92121 11.0519 8.96788 10.8559C9.01454 10.6599 9.08221 10.4826 9.17088 10.3239C9.25954 10.1653 9.36687 10.0136 9.49288 9.86893C9.61888 9.72426 9.76121 9.57726 9.91987 9.42793L10.4379 8.93793C10.6432 8.7606 10.8135 8.56693 10.9489 8.35693C11.0842 8.14693 11.1519 7.8786 11.1519 7.55193C11.1519 7.10393 11.0095 6.74693 10.7249 6.48093C10.4402 6.21493 10.0739 6.08193 9.62587 6.08193C9.15921 6.08193 8.78588 6.23126 8.50587 6.52993C8.22587 6.8286 8.06254 7.19259 8.01587 7.62193L6.67188 7.46793C6.72788 7.06659 6.84454 6.70493 7.02187 6.38293C7.19921 6.06093 7.42087 5.78793 7.68687 5.56393C7.95288 5.33993 8.25854 5.1696 8.60388 5.05293C8.94921 4.93626 9.31787 4.87793 9.70988 4.87793C10.1019 4.87793 10.4682 4.93393 10.8089 5.04593C11.1495 5.15793 11.4505 5.3236 11.7119 5.54293C11.9732 5.76226 12.1785 6.03293 12.3279 6.35493C12.4772 6.67693 12.5519 7.04793 12.5519 7.46793C12.5519 7.7666 12.5192 8.02793 12.4539 8.25193C12.3885 8.47593 12.2975 8.67893 12.1809 8.86093C12.0642 9.04293 11.9219 9.21326 11.7539 9.37193C11.5859 9.5306 11.4039 9.69393 11.2079 9.86193C11.0212 10.0206 10.8625 10.1629 10.7319 10.2889C10.6012 10.4149 10.4985 10.5433 10.4239 10.6739C10.3492 10.8046 10.2955 10.9493 10.2629 11.1079C10.2302 11.2666 10.2139 11.4626 10.2139 11.6959V12.1859ZM10.564 14.16C10.564 14.4027 10.4753 14.6173 10.298 14.804C10.1207 14.9907 9.89666 15.084 9.62599 15.084C9.36465 15.084 9.14299 14.993 8.96099 14.811C8.77899 14.629 8.68799 14.4167 8.68799 14.174C8.68799 13.922 8.77665 13.705 8.95399 13.523C9.13132 13.341 9.35532 13.25 9.62599 13.25C9.89666 13.25 10.1207 13.3387 10.298 13.516C10.4753 13.6933 10.564 13.908 10.564 14.16Z" fill="#15223D"/>
</svg>

