<svg xmlns="http://www.w3.org/2000/svg" width="20" height="20" viewBox="0 0 20 20">
    <g fill="none" fill-rule="evenodd">
        <rect width="20" height="20" fill="#E5E5E5" rx="10"/>
        <path fill="#15223D" d="M10.214 12.186H8.898v-.672c0-.243.023-.462.07-.658.047-.196.114-.373.203-.532.089-.159.196-.31.322-.455.126-.145.268-.292.427-.441l.518-.49c.205-.177.376-.371.511-.581.135-.21.203-.478.203-.805 0-.448-.142-.805-.427-1.071-.285-.266-.651-.399-1.099-.399-.467 0-.84.15-1.12.448-.28.299-.443.663-.49 1.092l-1.344-.154c.056-.401.173-.763.35-1.085.177-.322.399-.595.665-.819a2.8 2.8 0 0 1 .917-.511 3.433 3.433 0 0 1 1.106-.175c.392 0 .758.056 1.099.168.34.112.642.278.903.497.261.22.467.49.616.812.15.322.224.693.224 1.113 0 .299-.033.56-.098.784a2.33 2.33 0 0 1-.273.609 2.729 2.729 0 0 1-.427.511c-.168.159-.35.322-.546.49-.187.159-.345.301-.476.427-.13.126-.233.254-.308.385-.075.13-.128.275-.161.434a2.977 2.977 0 0 0-.049.588v.49zm.35 1.974a.908.908 0 0 1-.266.644.887.887 0 0 1-.672.28.905.905 0 0 1-.665-.273.873.873 0 0 1-.273-.637.9.9 0 0 1 .266-.651.899.899 0 0 1 .672-.273.91.91 0 0 1 .938.91z"/>
    </g>
</svg>
