<svg width="14" height="14" viewBox="0 0 14 14" fill="none" xmlns="http://www.w3.org/2000/svg">
    <path d="M6.33331 10.9997H7.66665V9.66634H6.33331V10.9997ZM6.99998 0.333008C3.31998 0.333008 0.333313 3.31967 0.333313 6.99967C0.333313 10.6797 3.31998 13.6663 6.99998 13.6663C10.68 13.6663 13.6666 10.6797 13.6666 6.99967C13.6666 3.31967 10.68 0.333008 6.99998 0.333008ZM6.99998 12.333C4.05998 12.333 1.66665 9.93967 1.66665 6.99967C1.66665 4.05967 4.05998 1.66634 6.99998 1.66634C9.93998 1.66634 12.3333 4.05967 12.3333 6.99967C12.3333 9.93967 9.93998 12.333 6.99998 12.333ZM6.99998 2.99967C5.52665 2.99967 4.33331 4.19301 4.33331 5.66634H5.66665C5.66665 4.93301 6.26665 4.33301 6.99998 4.33301C7.73331 4.33301 8.33331 4.93301 8.33331 5.66634C8.33331 6.99967 6.33331 6.83301 6.33331 8.99967H7.66665C7.66665 7.49967 9.66665 7.33301 9.66665 5.66634C9.66665 4.19301 8.47331 2.99967 6.99998 2.99967Z" fill="#989A9C"/>
</svg>
