<?xml version="1.0" standalone="no"?>
<!DOCTYPE svg PUBLIC "-//W3C//DTD SVG 1.1//EN" "http://www.w3.org/Graphics/SVG/1.1/DTD/svg11.dtd" >
<svg xmlns="http://www.w3.org/2000/svg">
<metadata>Generated by IcoMoon</metadata>
<defs>
<font id="icomoon" horiz-adv-x="1024">
<font-face units-per-em="1024" ascent="960" descent="-64" />
<missing-glyph horiz-adv-x="1024" />
<glyph unicode="&#x20;" horiz-adv-x="512" d="" />
<glyph unicode="&#xe900;" glyph-name="1" d="M661.333 362.667h-33.707l-11.947 11.52c41.813 48.64 66.987 111.787 66.987 180.48 0 153.173-124.16 277.333-277.333 277.333s-277.333-124.16-277.333-277.333c0-153.173 124.16-277.333 277.333-277.333 68.693 0 131.84 25.173 180.48 66.987l11.52-11.947v-33.707l213.333-212.907 63.573 63.573-212.907 213.333zM405.333 362.667c-106.24 0-192 85.76-192 192s85.76 192 192 192c106.24 0 192-85.76 192-192s-85.76-192-192-192z" />
<glyph unicode="&#xe901;" glyph-name="2" horiz-adv-x="658" d="M146.286 938.057l460.8-490.057-460.8-490.057-95.086 102.4 358.4 387.657-358.4 387.657 95.086 102.4z" />
<glyph unicode="&#xe902;" glyph-name="3" d="M597.345 533.341h-512.039v-85.301h511.96v85.301h0.080zM597.345 704.021h-512.039v-85.301h511.96v85.301h0.080zM85.305 277.362h341.36v85.299h-341.36v-85.299zM917.322 469.346l63.994-63.995-298.206-298.667-192.451 191.983 63.995 63.994 128.456-127.989 234.212 234.673z" />
<glyph unicode="&#xe903;" glyph-name="4" d="M768.040 234.65h-512.053v85.362h512.002v-85.362h0.051zM768.040 405.319h-512.053v85.36h512.002v-85.36h0.051zM768.040 575.986h-512.053v85.36h512.002v-85.36h0.051zM128 21.362l64.020 64.017 64.020-64.017 64.020 64.017 64.020-64.017 64.020 64.017 64.020-64.017 64.021 64.017 64.017-64.017 64.023 64.017 64.017-64.017 64.023 64.017 64.023-64.017v853.277l-64.023-64.020-64.023 64.020-64.017-64.020-64.023 64.020-64.017-64.020-64.129 64.020-64.020-63.966-63.966 63.966-64.020-63.966-64.020 63.966-63.966-63.966-64.020 63.966v-853.277z" />
<glyph unicode="&#xe904;" glyph-name="5" d="M170.611 362.644h170.623v170.71h-170.623v-170.71zM170.611 149.322h170.623v170.712h-170.623v-170.712zM170.611 575.967h170.623v170.71h-170.623v-170.71zM384.020 362.644h511.957v170.71h-511.957v-170.71zM384.020 149.322h511.957v170.712h-511.957v-170.712zM384.020 746.677v-170.623h511.957v170.623h-511.957z" />
<glyph unicode="&#xe905;" glyph-name="6" horiz-adv-x="1536" d="M256 832h1152v128h-1152c-70.4 0-128-57.6-128-128v-704h-128v-192h896v192h-640v704zM1472 704h-384c-35.2 0-64-28.8-64-64v-640c0-35.2 28.8-64 64-64h384c35.2 0 64 28.8 64 64v640c0 35.2-28.8 64-64 64zM1408 128h-256v448h256v-448z" />
<glyph unicode="&#xe906;" glyph-name="7" horiz-adv-x="1210" d="M418.909-17.455h349.091v418.909h-349.091v-418.909zM0-17.455h349.091v907.636h-349.091v-907.636zM837.818-17.455h349.091v418.909h-349.091v-418.909zM418.909 890.182v-418.909h768v418.909h-768z" />
<glyph unicode="&#xe907;" glyph-name="8" d="M193.422 846.222h637.156c43.804 0 79.644-35.84 79.644-79.644v-716.8l-159.289 159.289h-557.511c-43.804 0-79.644 35.84-79.644 79.644v477.867c0 43.804 35.84 79.644 79.644 79.644z" />
<glyph unicode="&#xe908;" glyph-name="9" horiz-adv-x="658" d="M533.416 938.578l-490.576-490.588 490.578-490.567 103.439 103.439-387.137 387.131 387.138 387.146-103.441 103.439z" />
<glyph unicode="&#xe909;" glyph-name="10" d="M597.333 533.333h-512v-85.333h512v85.333zM597.333 704h-512v-85.333h512v85.333zM768 362.667v170.667h-85.333v-170.667h-170.667v-85.333h170.667v-170.667h85.333v170.667h170.667v85.333h-170.667zM85.333 277.333h341.333v85.333h-341.333v-85.333z" />
<glyph unicode="&#xe90a;" glyph-name="11" d="M128 224v-160h160l471.893 471.894-160 160-471.893-471.894zM883.627 659.628c16.64 16.64 16.64 43.52 0 60.16l-99.84 99.84c-16.64 16.64-43.52 16.64-60.16 0l-78.080-78.080 160-160c0 0 78.080 78.080 78.080 78.080z" />
<glyph unicode="&#xe90b;" glyph-name="12" d="M128 192h256v85.333h-256v-85.333zM128 704v-85.333h768v85.333h-768zM128 405.333h512v85.333h-512v-85.333z" />
<glyph unicode="&#xe90c;" glyph-name="13" d="M85.333 298.667v-85.333h853.333v85.333h-853.333zM85.333 512v-85.333h853.333v85.333h-853.333zM85.333 725.333v-85.333h853.333v85.333h-853.333z" />
<glyph unicode="&#xe90d;" glyph-name="14" d="M853.333 405.333h-725.333c-23.467 0-42.667-19.2-42.667-42.667v-256c0-23.467 19.2-42.667 42.667-42.667h725.333c23.467 0 42.667 19.2 42.667 42.667v256c0 23.467-19.2 42.667-42.667 42.667zM853.333 832h-725.333c-23.467 0-42.667-19.2-42.667-42.667v-256c0-23.467 19.2-42.667 42.667-42.667h725.333c23.467 0 42.667 19.2 42.667 42.667v256c0 23.467-19.2 42.667-42.667 42.667z" />
<glyph unicode="&#xe90e;" glyph-name="15" d="M853.333 618.667h-128v170.667h-597.333c-46.933 0-85.333-38.4-85.333-85.333v-469.333h85.333c0-70.827 57.173-128 128-128s128 57.173 128 128h256c0-70.827 57.173-128 128-128s128 57.173 128 128h85.333v213.333l-128 170.667zM256 170.667c-35.413 0-64 28.587-64 64s28.587 64 64 64c35.413 0 64-28.587 64-64s-28.587-64-64-64zM832 554.667l83.627-106.667h-190.293v106.667h106.667zM768 170.667c-35.413 0-64 28.587-64 64s28.587 64 64 64c35.413 0 64-28.587 64-64s-28.587-64-64-64z" />
<glyph unicode="&#xe90f;" glyph-name="16" horiz-adv-x="1593" d="M1559.575 130.235l-763.137 763.118-763.104-763.121 160.908-160.905 602.2 602.213 602.229-602.214 160.905 160.908z" />
<glyph unicode="&#xe910;" glyph-name="17" d="M170.667 618.667h170.667v170.667h-170.667v-170.667zM426.667 106.667h170.667v170.667h-170.667v-170.667zM170.667 106.667h170.667v170.667h-170.667v-170.667zM170.667 362.667h170.667v170.667h-170.667v-170.667zM426.667 362.667h170.667v170.667h-170.667v-170.667zM682.667 789.333v-170.667h170.667v170.667h-170.667zM426.667 618.667h170.667v170.667h-170.667v-170.667zM682.667 362.667h170.667v170.667h-170.667v-170.667zM682.667 106.667h170.667v170.667h-170.667v-170.667z" />
<glyph unicode="&#xe911;" glyph-name="18" d="M246.824 366.006c45.282 0 81.991 36.71 81.991 81.992s-36.709 81.991-81.991 81.991c-45.282 0-81.991-36.709-81.991-81.991s36.709-81.992 81.991-81.992zM511.991 366.006c45.282 0 81.992 36.71 81.992 81.992s-36.709 81.991-81.992 81.991c-45.282 0-81.991-36.709-81.991-81.991s36.709-81.992 81.991-81.992zM777.159 366.006c45.284 0 81.988 36.71 81.988 81.992s-36.705 81.991-81.988 81.991c-45.284 0-81.994-36.709-81.994-81.991s36.71-81.992 81.994-81.992z" />
<glyph unicode="&#xe912;" glyph-name="19" d="M432.356 49.778v281.099h159.289v-281.099h199.111v374.798h119.467l-398.222 421.647-398.222-421.647h119.467v-374.798h199.111z" />
<glyph unicode="&#xe913;" glyph-name="20" d="M682.667 490.667c70.827 0 127.573 57.173 127.573 128s-56.747 128-127.573 128c-70.827 0-128-57.173-128-128s57.173-128 128-128zM341.333 490.667c70.827 0 127.573 57.173 127.573 128s-56.747 128-127.573 128c-70.827 0-128-57.173-128-128s57.173-128 128-128zM341.333 405.333c-99.413 0-298.667-49.92-298.667-149.333v-106.667h597.333v106.667c0 99.413-199.253 149.333-298.667 149.333zM682.667 405.333c-12.373 0-26.453-0.853-41.387-2.133 49.493-35.84 84.053-84.053 84.053-147.2v-106.667h256v106.667c0 99.413-199.253 149.333-298.667 149.333z" />
<glyph unicode="&#xe914;" glyph-name="21" d="M512 874.667c-188.587 0-341.333-21.333-341.333-170.667v-405.333c0-82.347 66.987-149.333 149.333-149.333l-64-64v-21.333h512v21.333l-64 64c82.347 0 149.333 66.987 149.333 149.333v405.333c0 149.333-152.747 170.667-341.333 170.667zM320 234.667c-35.413 0-64 28.587-64 64s28.587 64 64 64c35.413 0 64-28.587 64-64s-28.587-64-64-64zM469.333 490.667h-213.333v213.333h213.333v-213.333zM704 234.667c-35.413 0-64 28.587-64 64s28.587 64 64 64c35.413 0 64-28.587 64-64s-28.587-64-64-64zM768 490.667h-213.333v213.333h213.333v-213.333z" />
<glyph unicode="&#xe915;" glyph-name="22" d="M981.333 618.667c0-46.933-38.4-85.333-85.333-85.333-7.68 0-14.933 0.853-21.76 2.987l-151.893-151.467c2.133-6.827 2.987-14.507 2.987-22.187 0-46.933-38.4-85.333-85.333-85.333s-85.333 38.4-85.333 85.333c0 7.68 0.853 15.36 2.987 22.187l-108.8 108.8c-6.827-2.133-14.507-2.987-22.187-2.987s-15.36 0.853-22.187 2.987l-194.133-194.56c2.133-6.827 2.987-14.080 2.987-21.76 0-46.933-38.4-85.333-85.333-85.333s-85.333 38.4-85.333 85.333c0 46.933 38.4 85.333 85.333 85.333 7.68 0 14.933-0.853 21.76-2.987l194.56 194.133c-2.133 6.827-2.987 14.507-2.987 22.187 0 46.933 38.4 85.333 85.333 85.333s85.333-38.4 85.333-85.333c0-7.68-0.853-15.36-2.987-22.187l108.8-108.8c6.827 2.133 14.507 2.987 22.187 2.987s15.36-0.853 22.187-2.987l151.467 151.893c-2.133 6.827-2.987 14.080-2.987 21.76 0 46.933 38.4 85.333 85.333 85.333s85.333-38.4 85.333-85.333z" />
<glyph unicode="&#xe916;" glyph-name="23" d="M726.67 690.004h-32.728v-466.521h32.728v466.521zM158.087 690.007h-32.726v-466.519h32.726v466.519zM239.254 690.004h-32.726v-466.521h32.726v466.521zM320.559 690.004h-32.725v-466.521h32.725v466.521zM401.725 690.004h-32.725v-466.521h32.725v466.521zM483.031 690.004h-32.725v-466.521h32.725v466.521zM564.198 690.004h-32.725v-466.521h32.725v466.521zM645.501 690.004h-32.722v-466.521h32.722v466.521zM807.839 690.004h-32.728v-466.521h32.728v466.521zM889.145 690.004h-32.728v-466.521h32.728v466.521zM51.698 531.136h-32.726v236.864h237.008v-32.725h-204.282v-204.138zM255.98 145.488h-237.008v237.010h32.726v-204.282h204.282v-32.728zM987.341 145.488h-237.005v32.728h204.282v204.282h32.722v-237.010zM987.341 530.992h-32.722v204.282h-204.282v32.725h237.005v-237.008z" />
<glyph unicode="&#xe917;" glyph-name="24" d="M810.667 686.507l-60.16 60.16-238.507-238.507-238.507 238.507-60.16-60.16 238.507-238.507-238.507-238.507 60.16-60.16 238.507 238.507 238.507-238.507 60.16 60.16-238.507 238.507 238.507 238.507z" />
<glyph unicode="&#xe918;" glyph-name="25" d="M810.667 405.333h-597.333v85.333h597.333v-85.333z" />
<glyph unicode="&#xe919;" glyph-name="26" d="M810.667 405.333h-256v-256h-85.333v256h-256v85.333h256v256h85.333v-256h256v-85.333z" />
<glyph unicode="&#xe91a;" glyph-name="27" d="M807.253 703.573c-8.533 25.173-32.427 43.093-60.587 43.093h-469.333c-28.16 0-51.627-17.92-60.587-43.093l-88.747-255.573v-341.333c0-23.467 19.2-42.667 42.667-42.667h42.667c23.467 0 42.667 19.2 42.667 42.667v42.667h512v-42.667c0-23.467 19.2-42.667 42.667-42.667h42.667c23.467 0 42.667 19.2 42.667 42.667v341.333l-88.747 255.573zM277.333 277.333c-35.413 0-64 28.587-64 64s28.587 64 64 64c35.413 0 64-28.587 64-64s-28.587-64-64-64zM746.667 277.333c-35.413 0-64 28.587-64 64s28.587 64 64 64c35.413 0 64-28.587 64-64s-28.587-64-64-64zM213.333 490.667l64 192h469.333l64-192h-597.333z" />
<glyph unicode="&#xe91b;" glyph-name="28" horiz-adv-x="768" d="M576 592v240h48c26.4 0 48 21.6 48 48s-21.6 48-48 48h-480c-26.4 0-48-21.6-48-48s21.6-48 48-48h48v-240c0-79.68-64.32-144-144-144v-96h286.56v-336l48-48 48 48v336h289.44v96c-79.68 0-144 64.32-144 144z" />
<glyph unicode="&#xe91c;" glyph-name="29" d="M853.333 533.333h-128v48.64c73.387 19.2 128 85.333 128 164.693h-128v42.667c0 23.467-19.2 42.667-42.667 42.667h-341.333c-23.467 0-42.667-19.2-42.667-42.667v-42.667h-128c0-79.36 54.613-145.493 128-164.693v-48.64h-128c0-79.36 54.613-145.493 128-164.693v-48.64h-128c0-79.36 54.613-145.493 128-164.693v-48.64c0-23.467 19.2-42.667 42.667-42.667h341.333c23.467 0 42.667 19.2 42.667 42.667v48.64c73.387 19.2 128 85.333 128 164.693h-128v48.64c73.387 19.2 128 85.333 128 164.693zM512 149.333c-47.36 0-85.333 38.4-85.333 85.333s37.973 85.333 85.333 85.333c46.933 0 85.333-38.4 85.333-85.333s-37.973-85.333-85.333-85.333zM512 362.667c-47.36 0-85.333 38.4-85.333 85.333s37.973 85.333 85.333 85.333c46.933 0 85.333-38.4 85.333-85.333s-37.973-85.333-85.333-85.333zM512 576c-47.36 0-85.333 38.4-85.333 85.333 0 47.36 37.973 85.333 85.333 85.333 46.933 0 85.333-37.973 85.333-85.333 0-46.933-37.973-85.333-85.333-85.333z" />
<glyph unicode="&#xe91d;" glyph-name="30" horiz-adv-x="1593" d="M33.316 765.772l763.135-763.118 763.101 763.12-160.905 160.904-602.2-602.213-602.227 602.215-160.905-160.908z" />
<glyph unicode="&#xe91e;" glyph-name="31" d="M810.667 576h-170.667v256h-256v-256h-170.667l298.667-298.667 298.667 298.667zM213.333 192v-85.333h597.333v85.333h-597.333z" />
<glyph unicode="&#xe91f;" glyph-name="32" d="M824.889 433.778c0-164.949-133.718-298.667-298.667-298.667s-298.667 133.718-298.667 298.667c0 164.949 133.718 298.667 298.667 298.667s298.667-133.718 298.667-298.667z" />
<glyph unicode="&#xe920;" glyph-name="33" d="M298.667 533.333h-128v-298.667h128v298.667zM576 533.333h-128v-298.667h128v298.667zM938.667 149.333h-853.333v-128h853.333v128zM853.333 533.333h-128v-298.667h128v298.667zM512 917.333l-426.667-213.333v-85.333h853.333v85.333l-426.667 213.333z" />
<glyph unicode="&#xe921;" glyph-name="34" d="M775.68 533.333l-72.533 199.68c-12.373 33.707-44.373 56.32-80.213 56.32h-110.933v-85.333h110.933l62.293-170.667h-205.227l-15.36 42.667h47.36v85.333h-213.333v-85.333h74.667l77.653-213.333h-28.587c-18.773 95.147-98.56 165.547-198.4 170.24-119.467 5.973-224-93.44-224-212.907s93.867-213.333 213.333-213.333c104.96 0 189.867 72.107 209.067 170.667h179.2c18.773-95.147 98.56-165.547 198.4-170.24 119.467-5.547 224 93.44 224 213.333 0 119.467-93.867 213.333-213.333 213.333h-34.987v-0.427zM333.653 277.333c-17.067-49.92-63.573-85.333-120.32-85.333-71.68 0-128 56.32-128 128s56.32 128 128 128c56.747 0 103.253-35.413 120.32-85.333h-120.32v-85.333h120.32zM601.6 362.667h-59.733l-31.147 85.333h129.28c-18.773-24.747-32.427-53.333-38.4-85.333zM810.667 192c-71.68 0-128 56.32-128 128 0 39.68 17.493 73.813 44.8 97.28l40.96-112.64 80.213 29.013-41.387 113.92c1.28 0 2.56 0.427 3.84 0.427 71.68 0 128-56.32 128-128s-56.747-128-128.427-128z" />
<glyph unicode="&#xe922;" glyph-name="35" d="M512 874.667c-165.12 0-298.667-133.547-298.667-298.667 0-224 298.667-554.667 298.667-554.667s298.667 330.667 298.667 554.667c0 165.12-133.547 298.667-298.667 298.667zM512 469.333c-58.88 0-106.667 47.787-106.667 106.667s47.787 106.667 106.667 106.667c58.88 0 106.667-47.787 106.667-106.667s-47.787-106.667-106.667-106.667z" />
<glyph unicode="&#xe923;" glyph-name="36" d="M810.667 746.667v-597.333h-597.333v597.333h597.333zM810.667 832h-597.333c-46.933 0-85.333-38.4-85.333-85.333v-597.333c0-46.933 38.4-85.333 85.333-85.333h597.333c46.933 0 85.333 38.4 85.333 85.333v597.333c0 46.933-38.4 85.333-85.333 85.333z" />
<glyph unicode="&#xe924;" glyph-name="37" d="M213.333 320h170.667v-256h256v256h170.667l-298.667 298.667-298.667-298.667zM810.667 704v85.333h-597.333v-85.333h597.333z" />
<glyph unicode="&#xe925;" glyph-name="38" d="M512.006 311.467c75.406 0 136.533 61.127 136.533 136.534 0 75.406-61.127 136.533-136.533 136.533s-136.533-61.128-136.533-136.533c0-75.407 61.128-136.534 136.533-136.534zM384 874.667l-78.080-85.333h-135.253c-46.933 0-85.333-38.4-85.333-85.333v-512c0-46.933 38.4-85.333 85.333-85.333h682.667c46.933 0 85.333 38.4 85.333 85.333v512c0 46.933-38.4 85.333-85.333 85.333h-135.253l-78.080 85.333h-256zM512 234.667c-117.76 0-213.333 95.573-213.333 213.333s95.573 213.333 213.333 213.333c117.76 0 213.333-95.573 213.333-213.333s-95.573-213.333-213.333-213.333z" />
<glyph unicode="&#xe926;" glyph-name="39" d="M256 149.333c0-46.933 38.4-85.333 85.333-85.333h341.333c46.933 0 85.333 38.4 85.333 85.333v512h-512v-512zM810.667 789.333h-149.333l-42.667 42.667h-213.333l-42.667-42.667h-149.333v-85.333h597.333v85.333z" />
<glyph unicode="&#xe927;" glyph-name="40" d="M816.646 407.89c1.707 12.8 2.56 26.027 2.56 40.107 0 13.653-0.853 27.307-2.987 40.107l86.613 67.413c7.68 5.973 9.813 17.493 5.12 26.027l-81.92 141.653c-5.12 9.387-15.787 12.373-25.173 9.387l-101.973-40.96c-21.333 16.213-43.947 29.867-69.12 40.107l-15.36 108.373c-1.707 10.24-10.24 17.493-20.48 17.493h-163.841c-10.24 0-18.347-7.253-20.053-17.493l-15.36-108.373c-25.173-10.24-48.213-24.32-69.12-40.107l-101.973 40.96c-9.387 3.413-20.053 0-25.173-9.387l-81.493-141.653c-5.12-8.96-3.413-20.053 5.12-26.027l86.613-67.413c-2.133-12.8-3.84-26.88-3.84-40.107s0.853-27.307 2.987-40.107l-86.613-67.41c-7.68-5.973-9.813-17.493-5.12-26.027l81.92-141.653c5.12-9.387 15.787-12.373 25.173-9.387l101.973 40.96c21.333-16.213 43.947-29.867 69.12-40.107l15.36-108.373c2.133-10.24 10.24-17.493 20.48-17.493h163.841c10.24 0 18.773 7.253 20.053 17.493l15.36 108.373c25.173 10.24 48.213 23.893 69.12 40.107l101.973-40.96c9.387-3.413 20.053 0 25.173 9.387l81.92 141.653c5.12 9.387 2.987 20.053-5.12 26.027l-85.76 67.41zM512.005 294.4c-84.48 0-153.6 69.12-153.6 153.597 0 84.48 69.12 153.6 153.6 153.6s153.601-69.12 153.601-153.6c0-84.477-69.12-153.597-153.601-153.597z" />
<glyph unicode="&#xe928;" glyph-name="41" horiz-adv-x="1463" d="M60.717 718.513l559.657-652.933c52.578-61.342 144.928-68.446 206.27-15.868 5.688 4.876 10.992 10.18 15.866 15.868l559.657 652.933c52.578 61.341 45.474 153.691-15.866 206.27-26.514 22.726-60.281 35.217-95.203 35.217h-1119.312c-80.792 0-146.286-65.494-146.286-146.286 0-34.92 12.492-68.688 35.217-95.201z" />
<glyph unicode="&#xe929;" glyph-name="42" d="M771.315 401.315h-259.315v-233.379h259.315v233.379zM719.462 821.405h-414.9v93.352h-103.725v-93.352h-51.862c-57.567 0-103.206-42.008-103.206-93.352l-0.519-653.468c0-51.341 46.157-93.35 103.725-93.35h726.072c57.050 0 103.725 42.010 103.725 93.35v653.468c0 51.344-46.675 93.352-103.725 93.352h-51.859v93.352h-103.725v-93.352zM875.040 74.592h-726.074v513.439h726.074v-513.439z" />
<glyph unicode="&#xe92a;" glyph-name="43" d="M512.010 874.664c-235.52 0-426.666-191.147-426.666-426.667 0-235.517 191.146-426.666 426.666-426.666 235.523 0 426.665 191.149 426.665 426.666 0 235.52-191.142 426.667-426.665 426.667zM554.677 234.662h-85.333v85.338h85.333v-85.338zM554.677 405.331h-85.333v256h85.333v-256z" />
<glyph unicode="&#xe92b;" glyph-name="44" d="M128 405.333h341.333v426.667h-341.333v-426.667zM128 64h341.333v256h-341.333v-256zM554.667 64h341.333v426.667h-341.333v-426.667zM554.667 832v-256h341.333v256h-341.333z" />
<glyph unicode="&#xe92c;" glyph-name="45" d="M511.573 168.96l-314.453 244.48-69.12-53.76 384-298.667 384 298.667-69.547 54.187-314.88-244.907zM512 277.333l384 298.667-384 298.667-384-298.667 69.547-54.187 314.453-244.48z" />
<glyph unicode="&#xe92d;" glyph-name="46" d="M554.667 832c-212.053 0-384-171.947-384-384h-128l165.973-165.973 2.987-5.973 172.373 171.947h-128c0 165.12 133.547 298.667 298.667 298.667s298.667-133.547 298.667-298.667c0-165.12-133.547-298.667-298.667-298.667-82.347 0-157.013 33.707-210.773 87.893l-60.587-60.587c69.547-69.547 165.12-112.64 271.36-112.64 212.053 0 384 171.947 384 384s-171.947 384-384 384zM512 618.667v-213.333l182.613-108.373 30.72 51.627-149.333 88.747v181.333h-64z" />
<glyph unicode="&#xe92e;" glyph-name="47" d="M896 746.667c-47.36 14.933-99.413 21.333-149.333 21.333-83.2 0-172.8-17.067-234.667-64-61.867 46.933-151.467 64-234.667 64s-172.8-17.067-234.667-64v-625.067c0-10.667 10.667-21.333 21.333-21.333 4.267 0 6.4 2.133 10.667 2.133 57.6 27.733 140.8 46.933 202.667 46.933 83.2 0 172.8-17.067 234.667-64 57.6 36.267 162.133 64 234.667 64 70.4 0 142.933-12.8 202.667-44.8 4.267-2.133 6.4-2.133 10.667-2.133 10.667 0 21.333 10.667 21.333 21.333v622.933c-25.6 19.2-53.333 32-85.333 42.667zM896 170.667c-46.933 14.933-98.133 21.333-149.333 21.333-72.533 0-177.067-27.733-234.667-64v490.667c57.6 36.267 162.133 64 234.667 64 51.2 0 102.4-6.4 149.333-21.333v-490.667zM746.667 512c37.547 0 73.813-3.84 106.667-11.093v64.853c-33.707 6.4-69.973 10.24-106.667 10.24-72.533 0-138.24-12.373-192-35.413v-70.827c48.213 27.307 115.2 42.24 192 42.24zM554.667 427.093v-70.827c48.213 27.307 115.2 42.24 192 42.24 37.547 0 73.813-3.84 106.667-11.093v64.853c-33.707 6.4-69.973 10.24-106.667 10.24-72.533 0-138.24-12.8-192-35.413zM746.667 348.587c-72.533 0-138.24-12.373-192-35.413v-70.827c48.213 27.307 115.2 42.24 192 42.24 37.547 0 73.813-3.84 106.667-11.093v64.853c-33.707 6.827-69.973 10.24-106.667 10.24z" />
<glyph unicode="&#xe92f;" glyph-name="48" d="M896 704h-85.333v-384h-554.667v-85.333c0-23.467 19.2-42.667 42.667-42.667h469.333l170.667-170.667v640c0 23.467-19.2 42.667-42.667 42.667zM725.333 448v384c0 23.467-19.2 42.667-42.667 42.667h-554.667c-23.467 0-42.667-19.2-42.667-42.667v-597.333l170.667 170.667h426.667c23.467 0 42.667 19.2 42.667 42.667z" />
<glyph unicode="&#xe930;" glyph-name="49" d="M512.4 881.555c-239.446 0-433.556-194.109-433.556-433.556s194.11-433.554 433.556-433.554 433.558 194.106 433.558 433.554c0 239.446-194.112 433.556-433.558 433.556zM512.4 73.562c-206.795 0-374.435 167.642-374.435 374.437 0 206.794 167.64 374.435 374.435 374.435s374.435-167.64 374.435-374.435c0-206.796-167.642-374.437-374.435-374.437zM709.472 467.706h-177.365v216.778c0 16.326-13.235 29.56-29.56 29.56s-29.561-13.235-29.561-29.56v-275.9h236.486c16.326 0 29.562 13.235 29.562 29.56s-13.235 29.561-29.562 29.561z" />
<glyph unicode="&#xe931;" glyph-name="50" d="M810.667 618.667h-597.333c-70.827 0-128-57.173-128-128v-256h170.667v-170.667h512v170.667h170.667v256c0 70.827-57.173 128-128 128zM682.667 149.333h-341.333v213.333h341.333v-213.333zM810.667 448c-23.467 0-42.667 19.2-42.667 42.667s19.2 42.667 42.667 42.667c23.467 0 42.667-19.2 42.667-42.667s-19.2-42.667-42.667-42.667zM768 832h-512v-170.667h512v170.667z" />
<glyph unicode="&#xe932;" glyph-name="51" d="M512 618.667c46.933 0 85.333 38.4 85.333 85.333s-38.4 85.333-85.333 85.333c-46.933 0-85.333-38.4-85.333-85.333s38.4-85.333 85.333-85.333zM512 533.333c-46.933 0-85.333-38.4-85.333-85.333s38.4-85.333 85.333-85.333c46.933 0 85.333 38.4 85.333 85.333s-38.4 85.333-85.333 85.333zM512 277.333c-46.933 0-85.333-38.4-85.333-85.333s38.4-85.333 85.333-85.333c46.933 0 85.333 38.4 85.333 85.333s-38.4 85.333-85.333 85.333z" />
<glyph unicode="&#xe933;" glyph-name="52" horiz-adv-x="2458" d="M593.449 960c-194.636 0-279.519-245.969-126.31-366.010l626.35-490.756c74.179-58.12 178.444-58.12 252.621 0l626.352 490.756c153.199 120.041 68.323 366.010-126.31 366.010h-1252.702z" />
<glyph unicode="&#xe934;" glyph-name="53" d="M512 661.333c117.76 0 213.333-95.573 213.333-213.333 0-27.733-5.547-53.76-15.36-78.080l124.587-124.587c64.427 53.76 115.2 123.307 146.347 202.667-73.813 187.307-256 320-469.333 320-59.733 0-116.907-10.667-169.813-29.867l92.16-92.16c24.32 9.813 50.347 15.36 78.080 15.36zM85.333 777.813l116.907-116.907c-70.827-55.040-126.293-128.427-159.573-212.907 73.813-187.307 256-320 469.333-320 66.133 0 129.28 12.8 186.88 35.84l17.92-17.92 125.013-124.587 54.187 54.187-756.48 756.48-54.187-54.187zM321.28 541.867l66.133-66.133c-2.133-8.96-3.413-18.347-3.413-27.733 0-70.827 57.173-128 128-128 9.387 0 18.773 1.28 27.733 3.413l66.133-66.133c-28.587-14.080-60.16-22.613-93.867-22.613-117.76 0-213.333 95.573-213.333 213.333 0 33.707 8.533 65.28 22.613 93.867zM505.173 575.147l134.4-134.4 0.853 6.827c0 70.827-57.173 128-128 128l-7.253-0.427z" />
<glyph unicode="&#xe935;" glyph-name="54" d="M512 768c-213.333 0-395.52-132.693-469.333-320 73.813-187.307 256-320 469.333-320s395.52 132.693 469.333 320c-73.813 187.307-256 320-469.333 320zM512 234.667c-117.76 0-213.333 95.573-213.333 213.333s95.573 213.333 213.333 213.333c117.76 0 213.333-95.573 213.333-213.333s-95.573-213.333-213.333-213.333zM512 576c-70.827 0-128-57.173-128-128s57.173-128 128-128c70.827 0 128 57.173 128 128s-57.173 128-128 128z" />
<glyph unicode="&#xe936;" glyph-name="55" d="M127.99 447.995c0 50.428 9.932 100.362 29.23 146.95s47.583 88.921 83.241 124.579c35.658 35.658 77.989 63.943 124.579 83.241s96.523 29.23 146.95 29.23c50.428 0 100.361-9.933 146.948-29.23 46.592-19.298 88.922-47.583 124.582-83.241 35.654-35.658 63.942-77.99 83.238-124.579s29.229-96.523 29.229-146.95c0-101.843-40.454-199.515-112.467-271.528s-169.687-112.474-271.53-112.474c-101.843 0-199.516 40.461-271.529 112.474s-112.471 169.684-112.471 271.528zM511.99 917.328c-259.2 0-469.334-210.133-469.334-469.333 0-259.201 210.134-469.332 469.334-469.332 259.197 0 469.335 210.131 469.335 469.332 0 259.2-210.138 469.333-469.335 469.333zM391.328 629.030c-8.006 8.006-18.864 12.504-30.186 12.504s-22.181-4.498-30.187-12.504c-8.006-8.006-12.504-18.865-12.504-30.187 0-5.606 1.104-11.158 3.249-16.337s5.29-9.886 9.254-13.85l120.704-120.661-120.704-120.661c-8.006-8.006-12.504-18.867-12.504-30.188s4.498-22.182 12.504-30.182c8.006-8.006 18.865-12.506 30.187-12.506s22.18 4.499 30.186 12.506l120.662 120.701 120.704-120.701c3.964-3.962 8.669-7.104 13.847-9.248s10.726-3.245 16.333-3.245c5.606 0 11.155 1.107 16.333 3.258 5.171 2.144 9.875 5.286 13.837 9.254 3.962 3.962 7.104 8.672 9.248 13.85s3.245 10.726 3.245 16.333c-0.006 5.6-1.107 11.149-3.258 16.326-2.144 5.178-5.293 9.881-9.254 13.843l-120.704 120.661 120.704 120.661c8.006 8.001 12.506 18.854 12.512 30.172 0 11.318-4.493 22.175-12.493 30.18s-18.848 12.506-30.17 12.51c-11.315 0.004-22.176-4.488-30.18-12.488l-120.704-120.704-120.662 120.704z" />
<glyph unicode="&#xe937;" glyph-name="56" d="M682.667 234.24v299.093h-85.333v-299.093h-128l170.667-170.24 170.667 170.24h-128zM384 832l-170.667-170.24h128v-299.093h85.333v299.093h128l-170.667 170.24z" />
<glyph unicode="&#xe938;" glyph-name="57" d="M825.6 531.627c-29.013 147.2-158.293 257.707-313.6 257.707-123.307 0-230.4-69.973-283.733-172.373-128.427-13.653-228.267-122.453-228.267-254.293 0-141.227 114.773-256 256-256h554.667c117.76 0 213.333 95.573 213.333 213.333 0 112.64-87.467 203.947-198.4 211.627zM810.667 192h-554.667c-94.293 0-170.667 76.373-170.667 170.667 0 87.467 65.28 160.427 151.893 169.387l45.653 4.693 21.333 40.533c40.533 78.080 119.893 126.72 207.787 126.72 111.787 0 208.213-79.36 229.973-189.013l12.8-64 65.28-4.693c66.56-4.267 118.613-60.16 118.613-126.293 0-70.4-57.6-128-128-128zM426.667 354.987l-89.173 89.173-60.16-60.16 149.333-149.333 256.427 256.427-60.16 60.16-196.267-196.267z" />
<glyph unicode="&#xe939;" glyph-name="58" d="M469.333 192h85.333v85.333h-85.333v-85.333zM512 874.667c-235.52 0-426.667-191.147-426.667-426.667s191.147-426.667 426.667-426.667c235.52 0 426.667 191.147 426.667 426.667s-191.147 426.667-426.667 426.667zM512 106.667c-188.16 0-341.333 153.173-341.333 341.333s153.173 341.333 341.333 341.333c188.16 0 341.333-153.173 341.333-341.333s-153.173-341.333-341.333-341.333zM512 704c-94.293 0-170.667-76.373-170.667-170.667h85.333c0 46.933 38.4 85.333 85.333 85.333s85.333-38.4 85.333-85.333c0-85.333-128-74.667-128-213.333h85.333c0 96 128 106.667 128 213.333 0 94.293-76.373 170.667-170.667 170.667z" />
<glyph unicode="&#xe93a;" glyph-name="59" d="M725.333 490.667c14.507 0 28.587-1.707 42.667-3.84v205.653l-320 139.52-320-139.52v-209.493c0-193.707 136.533-375.040 320-418.987 23.467 5.547 46.080 13.653 68.267 23.467-29.44 41.813-46.933 92.587-46.933 147.2 0 141.227 114.773 256 256 256zM725.333 405.333c-94.293 0-170.667-76.373-170.667-170.667s76.373-170.667 170.667-170.667c94.293 0 170.667 76.373 170.667 170.667s-76.373 170.667-170.667 170.667zM725.333 346.453c26.453 0 47.787-21.76 47.787-47.787s-21.76-47.787-47.787-47.787c-26.027 0-47.787 21.76-47.787 47.787s21.333 47.787 47.787 47.787zM725.333 117.333c-39.68 0-74.24 19.627-95.573 49.92 2.133 30.72 64.427 46.080 95.573 46.080s93.44-15.36 95.573-46.080c-21.333-30.293-55.893-49.92-95.573-49.92z" />
<glyph unicode="&#xe93b;" glyph-name="60" d="M853.333 789.333h-682.667c-47.36 0-84.907-37.973-84.907-85.333l-0.427-512c0-47.36 37.973-85.333 85.333-85.333h682.667c47.36 0 85.333 37.973 85.333 85.333v512c0 47.36-37.973 85.333-85.333 85.333zM853.333 192h-682.667v256h682.667v-256zM853.333 618.667h-682.667v85.333h682.667v-85.333z" />
<glyph unicode="&#xe93c;" glyph-name="61" d="M810.667 746.667v-85.333h-170.667v85.333h170.667zM384 746.667v-256h-170.667v256h170.667zM810.667 405.333v-256h-170.667v256h170.667zM384 234.667v-85.333h-170.667v85.333h170.667zM896 832h-341.333v-256h341.333v256zM469.333 832h-341.333v-426.667h341.333v426.667zM896 490.667h-341.333v-426.667h341.333v426.667zM469.333 320h-341.333v-256h341.333v256z" />
<glyph unicode="&#xe93d;" glyph-name="62" d="M853.333 704h-170.667v85.333c0 47.36-37.973 85.333-85.333 85.333h-170.667c-47.36 0-85.333-37.973-85.333-85.333v-85.333h-170.667c-47.36 0-84.907-37.973-84.907-85.333l-0.427-469.333c0-47.36 37.973-85.333 85.333-85.333h682.667c47.36 0 85.333 37.973 85.333 85.333v469.333c0 47.36-37.973 85.333-85.333 85.333zM597.333 704h-170.667v85.333h170.667v-85.333z" />
<glyph unicode="&#xe93e;" glyph-name="63" d="M469.333 661.333h256v-85.333h-256v85.333zM469.333 490.667h256v-85.333h-256v85.333zM469.333 320h256v-85.333h-256v85.333zM298.667 661.333h85.333v-85.333h-85.333v85.333zM298.667 490.667h85.333v-85.333h-85.333v85.333zM298.667 320h85.333v-85.333h-85.333v85.333zM857.6 832h-691.2c-21.333 0-38.4-17.067-38.4-38.4v-691.2c0-17.067 17.067-38.4 38.4-38.4h691.2c17.067 0 38.4 21.333 38.4 38.4v691.2c0 21.333-21.333 38.4-38.4 38.4zM810.667 149.333h-597.333v597.333h597.333v-597.333z" />
<glyph unicode="&#xe93f;" glyph-name="64" d="M640 448c94.293 0 170.667 76.373 170.667 170.667s-76.373 170.667-170.667 170.667c-94.293 0-170.667-76.373-170.667-170.667s76.373-170.667 170.667-170.667zM256 533.333v128h-85.333v-128h-128v-85.333h128v-128h85.333v128h128v85.333h-128zM640 362.667c-113.92 0-341.333-57.173-341.333-170.667v-85.333h682.667v85.333c0 113.493-227.413 170.667-341.333 170.667z" />
<glyph unicode="&#xe940;" glyph-name="65" d="M682.667 576v-426.667h-341.333v426.667h341.333zM618.667 832h-213.333l-42.667-42.667h-149.333v-85.333h597.333v85.333h-149.333l-42.667 42.667zM768 661.333h-512v-512c0-46.933 38.4-85.333 85.333-85.333h341.333c46.933 0 85.333 38.4 85.333 85.333v512z" />
<glyph unicode="&#xe941;" glyph-name="66" d="M810.667 320l-256-256-60.587 60.587 153.173 152.747h-476.587v512h85.333v-426.667h391.253l-153.173 152.747 60.587 60.587 256-256z" />
<glyph unicode="&#xe942;" glyph-name="67" d="M825.6 531.627c-29.013 147.2-158.293 257.707-313.6 257.707-123.307 0-230.4-69.973-283.733-172.373-128.427-13.653-228.267-122.453-228.267-254.293 0-141.227 114.773-256 256-256h554.667c117.76 0 213.333 95.573 213.333 213.333 0 112.64-87.467 203.947-198.4 211.627zM810.667 192h-554.667c-94.293 0-170.667 76.373-170.667 170.667 0 87.467 65.28 160.427 151.893 169.387l45.653 4.693 21.333 40.533c40.533 78.080 119.893 126.72 207.787 126.72 111.787 0 208.213-79.36 229.973-189.013l12.8-64 65.28-4.693c66.56-4.267 118.613-60.16 118.613-126.293 0-70.4-57.6-128-128-128zM341.333 405.333h108.8v-128h123.733v128h108.8l-170.667 170.667-170.667-170.667z" />
<glyph unicode="&#xe943;" glyph-name="68" d="M469.333 192c0-46.933-38.4-85.333-85.333-85.333s-85.333 38.4-85.333 85.333c0 46.933 38.4 85.333 85.333 85.333s85.333-38.4 85.333-85.333zM384 533.333c-46.933 0-85.333-38.4-85.333-85.333s38.4-85.333 85.333-85.333c46.933 0 85.333 38.4 85.333 85.333s-38.4 85.333-85.333 85.333zM384 789.333c-46.933 0-85.333-38.4-85.333-85.333s38.4-85.333 85.333-85.333c46.933 0 85.333 38.4 85.333 85.333s-38.4 85.333-85.333 85.333zM640 618.667c46.933 0 85.333 38.4 85.333 85.333s-38.4 85.333-85.333 85.333c-46.933 0-85.333-38.4-85.333-85.333s38.4-85.333 85.333-85.333zM640 533.333c-46.933 0-85.333-38.4-85.333-85.333s38.4-85.333 85.333-85.333c46.933 0 85.333 38.4 85.333 85.333s-38.4 85.333-85.333 85.333zM640 277.333c-46.933 0-85.333-38.4-85.333-85.333s38.4-85.333 85.333-85.333c46.933 0 85.333 38.4 85.333 85.333s-38.4 85.333-85.333 85.333z" />
<glyph unicode="&#xe944;" glyph-name="69" d="M213.333 576l60.16-60.16 195.84 195.413v-689.92h85.333v689.92l195.84-195.84 60.16 60.587-298.667 298.667-298.667-298.667z" />
<glyph unicode="&#xe945;" glyph-name="70" d="M810.667 320l-60.16 60.16-195.84-195.413v689.92h-85.333v-689.92l-195.84 195.84-60.16-60.587 298.667-298.667 298.667 298.667z" />
<glyph unicode="&#xe946;" glyph-name="71" d="M490.658 230.4c-87.892 0-122.452 39.253-127.146 89.6h-93.867c5.12-93.44 75.093-145.92 157.013-163.413v-92.587h127.999v91.733c83.2 15.787 149.333 64 149.333 151.467 0 121.173-103.68 162.56-200.533 187.733s-127.999 51.2-127.999 91.733c0 46.507 43.093 78.933 115.199 78.933 75.947 0 104.107-36.267 106.667-89.6h94.293c-2.987 73.387-47.787 140.8-136.96 162.56v93.44h-127.999v-92.16c-82.773-17.92-149.333-71.68-149.333-154.027 0-98.56 81.493-147.627 200.532-176.213 106.667-25.6 128-63.147 128-102.827 0-29.44-20.907-76.373-115.2-76.373z" />
<glyph unicode="&#xe947;" glyph-name="72" d="M968.529 149.333l-388.267 388.266c38.4 98.133 17.067 213.333-64 294.4-85.333 85.333-213.332 102.4-315.732 55.467l183.467-183.467-128-128-187.733 183.467c-51.2-102.4-29.867-230.4 55.467-315.733 81.067-81.067 196.267-102.4 294.4-64l388.265-388.267c17.067-17.067 42.667-17.067 59.733 0l98.133 98.133c21.333 17.067 21.333 46.933 4.267 59.733z" />
<glyph unicode="&#xe948;" glyph-name="73" d="M512 64c47.13 0 85.333 38.204 85.333 85.333s-38.204 85.333-85.333 85.333c-47.13 0-85.333-38.204-85.333-85.333s38.204-85.333 85.333-85.333zM426.667 832h170.667v-512h-170.667v512z" />
<glyph unicode="&#xe949;" glyph-name="74" d="M512 448c141.44 0 256 114.56 256 256s-114.56 256-256 256c-141.44 0-256-114.56-256-256s114.56-256 256-256zM512 320c-170.88 0-512-85.76-512-256v-128h1024v128c0 170.24-341.12 256-512 256z" />
<glyph unicode="&#xe94a;" glyph-name="75" horiz-adv-x="1071" d="M1056.577 122.182l-423.564 423.563c41.891 107.055 18.618 232.727-69.818 321.164-93.091 93.091-232.725 111.709-344.435 60.509l200.145-200.145-139.636-139.636-204.8 200.145c-55.855-111.709-32.582-251.345 60.509-344.436 88.436-88.436 214.109-111.709 321.164-69.818l423.562-423.564c18.618-18.618 46.545-18.618 65.164 0l107.055 107.055c23.273 18.618 23.273 51.2 4.655 65.164z" />
<glyph unicode="&#xe94b;" glyph-name="76" horiz-adv-x="922" d="M819.2 857.6h-214.016c-21.504 59.392-77.824 102.4-144.384 102.4s-122.88-43.008-144.384-102.4h-214.016c-56.32 0-102.4-46.080-102.4-102.4v-716.8c0-56.32 46.080-102.4 102.4-102.4h716.8c56.32 0 102.4 46.080 102.4 102.4v716.8c0 56.32-46.080 102.4-102.4 102.4zM460.8 857.6c28.16 0 51.2-23.040 51.2-51.2s-23.040-51.2-51.2-51.2c-28.16 0-51.2 23.040-51.2 51.2s23.040 51.2 51.2 51.2zM563.2 140.8h-358.4v102.4h358.4v-102.4zM716.8 345.6h-512v102.4h512v-102.4zM716.8 550.4h-512v102.4h512v-102.4z" />
<glyph unicode="&#xe94c;" glyph-name="77" horiz-adv-x="1317" d="M438.869 142.994l-305.006 305.008-103.863-103.131 408.869-408.871 877.717 877.716-103.131 103.132-774.586-773.854z" />
<glyph unicode="&#xe94d;" glyph-name="78" horiz-adv-x="712" d="M619.547 608.598l-197.22-472.491c-37.9-90.802-142.143-133.645-232.943-95.744-90.801 37.897-133.647 142.14-95.746 232.942l214.371 513.576c23.666 56.699 88.891 83.508 145.587 59.841 56.703-23.666 83.509-88.89 59.842-145.59l-180.070-431.403c-9.432-22.599-35.638-33.369-58.236-23.939-22.597 9.434-33.369 35.64-23.937 58.239l162.922 390.317-61.629 25.724-162.922-390.316c-23.666-56.703 3.142-121.927 59.841-145.591 56.699-23.668 121.923 3.143 145.59 59.842l180.072 431.403c37.901 90.8-4.946 195.043-95.748 232.944-90.799 37.901-195.041-4.946-232.941-95.746l-214.371-513.576c-52.135-124.901 6.749-268.163 131.651-320.298s268.162 6.749 320.297 131.651l197.222 472.491-61.631 25.725z" />
<glyph unicode="&#xe94e;" glyph-name="79" horiz-adv-x="819" d="M409.6-64c56.32 0 102.4 46.080 102.4 102.4h-204.8c0-56.32 45.568-102.4 102.4-102.4zM716.8 243.2v256c0 157.184-83.968 288.768-230.4 323.584v34.816c0 42.496-34.304 76.8-76.8 76.8s-76.8-34.304-76.8-76.8v-34.816c-146.944-34.816-230.4-165.888-230.4-323.584v-256l-102.4-102.4v-51.2h819.2v51.2l-102.4 102.4z" />
<glyph unicode="&#xe94f;" glyph-name="80" horiz-adv-x="819" d="M782.853 177.152l-66.048 66.048v256c0 157.184-83.968 288.768-230.403 323.584v34.816c0 42.496-34.304 76.8-76.8 76.8s-76.8-34.304-76.8-76.8v-34.816c-146.944-34.816-230.4-165.888-230.4-323.584v-256l-66.048-66.048c-32.256-32.256-9.728-87.552 35.84-87.552h674.307c46.080 0 68.608 55.296 36.352 87.552zM614.405 192h-409.603v307.2c0 126.976 77.312 230.4 204.8 230.4 127.491 0 204.803-103.424 204.803-230.4v-307.2zM409.603-64c56.32 0 102.403 46.080 102.403 102.4h-204.803c0-56.32 45.568-102.4 102.4-102.4z" />
<glyph unicode="&#xe950;" glyph-name="81" horiz-adv-x="796" d="M682.655-30.436l80.213 80.213-193.989 193.991-80.213-80.213 193.989-193.991zM142.213 675.556h199.111v-318.009l-307.769-307.769 80.213-80.213 341.333 341.333v364.658h199.109l-255.998 256-256-256z" />
<glyph unicode="&#xe951;" glyph-name="82" horiz-adv-x="904" d="M903.529 297.412l-361.412-361.412-85.534 85.534 216.245 215.642h-672.828v722.824h120.471v-602.353h552.358l-216.245 215.642 85.534 85.534 361.412-361.412z" />
<glyph unicode="&#xe952;" glyph-name="83" d="M460.8 294.4h102.4v-102.4h-102.4v102.4zM460.8 704h102.4v-307.2h-102.4v307.2zM511.488 960c-282.624 0-511.488-229.376-511.488-512s228.864-512 511.488-512c283.136 0 512.512 229.376 512.512 512s-229.376 512-512.512 512zM512 38.4c-226.304 0-409.6 183.296-409.6 409.6s183.296 409.6 409.6 409.6c226.304 0 409.6-183.296 409.6-409.6s-183.296-409.6-409.6-409.6z" />
<glyph unicode="&#xe953;" glyph-name="84" d="M460.8 704h102.4v-102.4h-102.4v102.4zM460.8 499.2h102.4v-307.2h-102.4v307.2zM512 960c-282.624 0-512-229.376-512-512s229.376-512 512-512c282.624 0 512 229.376 512 512s-229.376 512-512 512zM512 38.4c-225.792 0-409.6 183.808-409.6 409.6s183.808 409.6 409.6 409.6c225.792 0 409.6-183.808 409.6-409.6s-183.808-409.6-409.6-409.6z" />
<glyph unicode="&#xe954;" glyph-name="85" d="M460.8 704h102.4v-102.4h-102.4v102.4zM460.8 499.2h102.4v-307.2h-102.4v307.2zM512 960c-282.624 0-512-229.376-512-512s229.376-512 512-512c282.624 0 512 229.376 512 512s-229.376 512-512 512zM512 38.4c-225.792 0-409.6 183.808-409.6 409.6s183.808 409.6 409.6 409.6c225.792 0 409.6-183.808 409.6-409.6s-183.808-409.6-409.6-409.6z" />
<glyph unicode="&#xe955;" glyph-name="86" horiz-adv-x="1280" d="M957.653 842.24c-23.040 32.64-61.44 53.76-104.32 53.76l-704-0.64c-70.4 0-128-56.96-128-127.36v-640c0-70.4 57.6-127.36 128-127.36l704-0.64c42.88 0 81.28 21.12 104.32 53.76l279.68 394.24-279.68 394.24z" />
<glyph unicode="&#xe956;" glyph-name="87" horiz-adv-x="1229" d="M477.867 686.933v273.067l-477.867-477.867 477.867-477.867v279.893c341.333 0 580.267-109.227 750.933-348.16-68.267 341.333-273.067 682.667-750.933 750.933z" />
</font>
</defs>
</svg>
