<svg width="127" height="48" viewBox="0 0 127 48" fill="none" xmlns="http://www.w3.org/2000/svg">
    <path d="M7.55505 34.2045C7.55505 38.7296 10.3055 41.6646 15.136 41.6646C19.9623 41.6646 22.6911 38.7296 22.6911 34.2045V12.5347H30.2461V34.915C30.2461 42.7177 24.369 47.9998 15.136 47.9998C5.90306 47.9998 0 42.7177 0 34.915V12.5347H7.55505V34.2045Z" fill="white"/>
    <path d="M60.8298 25.4379C60.8298 20.9127 58.0794 17.9777 53.2488 17.9777C48.4226 17.9777 45.6938 20.9127 45.6938 25.4379V47.1077H38.1431V24.7274C38.1431 16.9247 44.0202 11.6426 53.2532 11.6426C62.4818 11.6426 68.3849 16.9247 68.3849 24.7274V47.1077H60.8298V25.4379Z" fill="white"/>
    <path d="M75.7539 47.1079V12.5479H83.309V47.1079H75.7539Z" fill="white"/>
    <path d="M75.209 4.18679C75.209 1.84811 77.181 0 79.5422 0C81.9078 0 83.8495 1.84811 83.8495 4.18679C83.8495 6.5001 81.9034 8.34821 79.5422 8.34821C77.181 8.34821 75.209 6.49587 75.209 4.18679Z" fill="white"/>
    <path d="M120.132 17.7539C120.132 15.8762 121.65 14.396 123.566 14.396C125.486 14.396 127 15.8762 127 17.7539C127 19.6316 125.486 21.116 123.566 21.116C121.65 21.1202 120.132 19.6316 120.132 17.7539ZM126.438 17.7539C126.438 16.1807 125.179 14.9458 123.566 14.9458C121.962 14.9458 120.695 16.1849 120.695 17.7539C120.695 19.3229 121.962 20.5705 123.566 20.5705C125.179 20.5705 126.438 19.3271 126.438 17.7539ZM122.277 19.3609V16.003H123.826C124.5 16.003 124.997 16.4133 124.997 17.0349C124.997 17.5763 124.669 17.9273 124.184 18.0246L125.153 19.3609H124.5L123.579 18.0964H122.814V19.3609H122.277ZM122.814 17.6397H123.678C124.18 17.6397 124.414 17.4325 124.414 17.0476C124.414 16.6966 124.167 16.4809 123.696 16.4809H122.814V17.6397Z" fill="white"/>
    <path d="M107.889 26.9645L103.539 26.0764C99.3094 25.1883 97.5839 23.9153 97.5839 21.7289C97.5839 19.0138 100.084 17.263 103.863 17.263C107.504 17.263 110.147 19.0984 110.51 21.915C110.536 22.1138 110.562 22.4352 110.562 22.727H117.624C117.624 22.727 117.624 22.3337 117.62 22.0123V21.9404C117.395 15.8166 111.769 11.5664 103.811 11.5664C95.4821 11.5664 90.0029 15.842 90.0029 22.2998C90.0029 27.5566 93.229 30.8003 99.8067 32.1451L104.508 33.1305C108.936 34.0652 110.735 35.3889 110.735 37.6683C110.735 40.358 107.959 42.2527 104.032 42.2527C99.7808 42.2527 96.8271 40.4046 96.4768 37.5203C96.4292 37.1693 96.4336 36.7675 96.4336 36.7675H89.1553L89.1682 37.3258L89.1899 37.736C89.5834 44.0204 95.1275 47.9873 103.63 47.9873C112.685 47.9873 118.264 43.7117 118.264 36.7971C118.268 31.4558 115.142 28.4532 107.889 26.9645Z" fill="white"/>
</svg>
