<svg width="19" height="18" viewBox="0 0 19 18" fill="none" xmlns="http://www.w3.org/2000/svg">
    <path d="M13.2246 11H12.4333L12.1528 10.73C13.1345 9.59 13.7254 8.11 13.7254 6.5C13.7254 2.91 10.8106 0 7.21465 0C3.61869 0 0.703857 2.91 0.703857 6.5C0.703857 10.09 3.61869 13 7.21465 13C8.82733 13 10.3098 12.41 11.4517 11.43L11.7221 11.71V12.5L16.7304 17.49L18.2229 16L13.2246 11ZM7.21465 11C4.72052 11 2.70718 8.99 2.70718 6.5C2.70718 4.01 4.72052 2 7.21465 2C9.70879 2 11.7221 4.01 11.7221 6.5C11.7221 8.99 9.70879 11 7.21465 11Z" fill="#444545"/>
</svg>
