<svg width="22" height="16" viewBox="0 0 22 16" fill="none" xmlns="http://www.w3.org/2000/svg">
    <path d="M19 4H16V0H2C0.9 0 0 0.9 0 2V13H2C2 14.66 3.34 16 5 16C6.66 16 8 14.66 8 13H14C14 14.66 15.34 16 17 16C18.66 16 20 14.66 20 13H22V8L19 4ZM5 14.5C4.17 14.5 3.5 13.83 3.5 13C3.5 12.17 4.17 11.5 5 11.5C5.83 11.5 6.5 12.17 6.5 13C6.5 13.83 5.83 14.5 5 14.5ZM18.5 5.5L20.46 8H16V5.5H18.5ZM17 14.5C16.17 14.5 15.5 13.83 15.5 13C15.5 12.17 16.17 11.5 17 11.5C17.83 11.5 18.5 12.17 18.5 13C18.5 13.83 17.83 14.5 17 14.5Z" fill="white"/>
</svg>
